<mxfile host="app.diagrams.net" modified="2020-06-08T10:31:00.126Z" agent="5.0 (Macintosh; Intel Mac OS X 10_14_6) AppleWebKit/537.36 (KHTML, like Gecko) Chrome/83.0.4103.61 Safari/537.36" etag="gtJAKhgThuGTInH_5p3L" version="13.1.14" type="github" pages="7">
  <diagram name="Page-1" id="c7558073-3199-34d8-9f00-42111426c3f3">
    <mxGraphModel dx="1186" dy="773" grid="1" gridSize="10" guides="1" tooltips="1" connect="1" arrows="1" fold="1" page="1" pageScale="1" pageWidth="826" pageHeight="1169" background="#ffffff" math="0" shadow="0">
      <root>
        <mxCell id="0" />
        <mxCell id="1" parent="0" />
        <mxCell id="2" value="&lt;p style=&quot;margin: 0px; margin-top: 4px; text-align: center; text-decoration: underline;&quot;&gt;&lt;strong&gt;Process 1&lt;br /&gt;&lt;/strong&gt;&lt;/p&gt;&lt;hr /&gt;&lt;p style=&quot;margin: 0px; margin-left: 8px;&quot;&gt;System Study&lt;/p&gt;&lt;p style=&quot;margin: 0px; margin-left: 8px;&quot;&gt;Preparation&lt;/p&gt;" style="verticalAlign=middle;align=center;overflow=fill;fontSize=12;fontFamily=Helvetica;html=1;rounded=1;fontStyle=1;strokeWidth=3;fillColor=#E6FFCC" parent="1" vertex="1">
          <mxGeometry x="236" y="236" width="110" height="90" as="geometry" />
        </mxCell>
        <mxCell id="3" value="Engineering" style="whiteSpace=wrap;align=center;verticalAlign=middle;fontStyle=1;strokeWidth=3;fillColor=#FFFFCC" parent="1" vertex="1">
          <mxGeometry x="246" y="126" width="90" height="60" as="geometry" />
        </mxCell>
        <mxCell id="4" value="Investors" style="whiteSpace=wrap;align=center;verticalAlign=middle;fontStyle=1;strokeWidth=3;fillColor=#FFFFCC" parent="1" vertex="1">
          <mxGeometry x="40" y="251" width="90" height="60" as="geometry" />
        </mxCell>
        <mxCell id="5" value="ON-DEMAND SYSTEM DEVELOPMENT" style="shape=process;whiteSpace=wrap;align=center;verticalAlign=middle;size=0.0475;fontStyle=1;strokeWidth=3;fillColor=#FFCCCC" parent="1" vertex="1">
          <mxGeometry x="200.99999999999991" y="391" width="400" height="50" as="geometry" />
        </mxCell>
        <mxCell id="6" value="&lt;p style=&quot;margin: 0px; margin-top: 4px; text-align: center; text-decoration: underline;&quot;&gt;&lt;strong&gt;Process 2&lt;br /&gt;&lt;/strong&gt;&lt;/p&gt;&lt;hr /&gt;&lt;p style=&quot;margin: 0px; margin-left: 8px;&quot;&gt;System Analysis&lt;/p&gt;" style="verticalAlign=middle;align=center;overflow=fill;fontSize=12;fontFamily=Helvetica;html=1;rounded=1;fontStyle=1;strokeWidth=3;fillColor=#E6FFCC" parent="1" vertex="1">
          <mxGeometry x="390" y="146" width="110" height="90" as="geometry" />
        </mxCell>
        <mxCell id="7" value="&lt;p style=&quot;margin: 0px; margin-top: 4px; text-align: center; text-decoration: underline;&quot;&gt;&lt;strong&gt;&lt;strong&gt;Process&lt;/strong&gt; 3&lt;br /&gt;&lt;/strong&gt;&lt;/p&gt;&lt;hr /&gt;&lt;p style=&quot;margin: 0px; margin-left: 8px;&quot;&gt;List Possible&lt;/p&gt;&lt;p style=&quot;margin: 0px; margin-left: 8px;&quot;&gt;System Solutions&lt;/p&gt;" style="verticalAlign=middle;align=center;overflow=fill;fontSize=12;fontFamily=Helvetica;html=1;rounded=1;fontStyle=1;strokeWidth=3;fillColor=#E6FFCC" parent="1" vertex="1">
          <mxGeometry x="681" y="371" width="110" height="90" as="geometry" />
        </mxCell>
        <mxCell id="8" value="&lt;p style=&quot;margin: 0px; margin-top: 4px; text-align: center; text-decoration: underline;&quot;&gt;&lt;strong&gt;&lt;strong&gt;Process&lt;/strong&gt; 4&lt;br /&gt;&lt;/strong&gt;&lt;/p&gt;&lt;hr /&gt;&lt;p style=&quot;margin: 0px; margin-left: 8px;&quot;&gt;Detail Chosen&lt;/p&gt;&lt;p style=&quot;margin: 0px; margin-left: 8px;&quot;&gt;Solution&lt;/p&gt;" style="verticalAlign=middle;align=center;overflow=fill;fontSize=12;fontFamily=Helvetica;html=1;rounded=1;fontStyle=1;strokeWidth=3;fillColor=#E6FFCC" parent="1" vertex="1">
          <mxGeometry x="560" y="241" width="110" height="90" as="geometry" />
        </mxCell>
        <mxCell id="9" value="&lt;p style=&quot;margin: 0px; margin-top: 4px; text-align: center; text-decoration: underline;&quot;&gt;&lt;strong&gt;&lt;strong&gt;Process&lt;/strong&gt; 5&lt;br /&gt;&lt;/strong&gt;&lt;/p&gt;&lt;hr /&gt;&lt;p style=&quot;margin: 0px; margin-left: 8px;&quot;&gt;New System&lt;/p&gt;&lt;p style=&quot;margin: 0px; margin-left: 8px;&quot;&gt;Design&lt;/p&gt;" style="verticalAlign=middle;align=center;overflow=fill;fontSize=12;fontFamily=Helvetica;html=1;rounded=1;fontStyle=1;strokeWidth=3;fillColor=#E6FFCC" parent="1" vertex="1">
          <mxGeometry x="540" y="510" width="110" height="90" as="geometry" />
        </mxCell>
        <mxCell id="10" value="&lt;p style=&quot;margin: 0px; margin-top: 4px; text-align: center; text-decoration: underline;&quot;&gt;&lt;strong&gt;&lt;strong&gt;Process&lt;/strong&gt; 6&lt;br /&gt;&lt;/strong&gt;&lt;/p&gt;&lt;hr /&gt;&lt;p style=&quot;margin: 0px; margin-left: 8px;&quot;&gt;New&lt;/p&gt;&lt;p style=&quot;margin: 0px; margin-left: 8px;&quot;&gt;System&lt;/p&gt;&lt;p style=&quot;margin: 0px; margin-left: 8px;&quot;&gt;Construction&lt;/p&gt;" style="verticalAlign=middle;align=center;overflow=fill;fontSize=12;fontFamily=Helvetica;html=1;rounded=1;fontStyle=1;strokeWidth=3;fillColor=#E6FFCC" parent="1" vertex="1">
          <mxGeometry x="188.49999999999991" y="510" width="110" height="90" as="geometry" />
        </mxCell>
        <mxCell id="12" value="Management" style="whiteSpace=wrap;align=center;verticalAlign=middle;fontStyle=1;strokeWidth=3;fillColor=#FFFFCC" parent="1" vertex="1">
          <mxGeometry x="691" y="60.00000000000002" width="90" height="60" as="geometry" />
        </mxCell>
        <mxCell id="13" value="Management" style="whiteSpace=wrap;align=center;verticalAlign=middle;fontStyle=1;strokeWidth=3;fillColor=#FFFFCC" parent="1" vertex="1">
          <mxGeometry x="353.50000000000006" y="650" width="90" height="60" as="geometry" />
        </mxCell>
        <mxCell id="14" value="Engineering" style="whiteSpace=wrap;align=center;verticalAlign=middle;fontStyle=1;strokeWidth=3;fillColor=#FFFFCC" parent="1" vertex="1">
          <mxGeometry x="34.99999999999997" y="524.9999999999999" width="90" height="60" as="geometry" />
        </mxCell>
        <mxCell id="15" value="Vendors" style="whiteSpace=wrap;align=center;verticalAlign=middle;fontStyle=1;strokeWidth=3;fillColor=#FFFFCC" parent="1" vertex="1">
          <mxGeometry x="549.9999999999999" y="650" width="90" height="60" as="geometry" />
        </mxCell>
        <mxCell id="36" value="" style="edgeStyle=none;noEdgeStyle=1;strokeColor=#990000;strokeWidth=2" parent="1" source="3" target="2" edge="1">
          <mxGeometry width="100" height="100" relative="1" as="geometry">
            <mxPoint x="20" y="250" as="sourcePoint" />
            <mxPoint x="120" y="150" as="targetPoint" />
          </mxGeometry>
        </mxCell>
        <mxCell id="37" value="" style="edgeStyle=none;noEdgeStyle=1;strokeColor=#990000;strokeWidth=2" parent="1" source="4" target="2" edge="1">
          <mxGeometry width="100" height="100" relative="1" as="geometry">
            <mxPoint x="280" y="190" as="sourcePoint" />
            <mxPoint x="380" y="90" as="targetPoint" />
          </mxGeometry>
        </mxCell>
        <mxCell id="11" value="&lt;p style=&quot;margin: 0px; margin-top: 4px; text-align: center; text-decoration: underline;&quot;&gt;&lt;strong&gt;&lt;strong&gt;Process&lt;/strong&gt; 7&lt;br /&gt;&lt;/strong&gt;&lt;/p&gt;&lt;hr /&gt;&lt;p style=&quot;margin: 0px; margin-left: 8px;&quot;&gt;New System&lt;/p&gt;&lt;p style=&quot;margin: 0px; margin-left: 8px;&quot;&gt;Startup and&lt;/p&gt;&lt;p style=&quot;margin: 0px; margin-left: 8px;&quot;&gt;Testing&lt;/p&gt;" style="verticalAlign=middle;align=center;overflow=fill;fontSize=12;fontFamily=Helvetica;html=1;rounded=1;fontStyle=1;strokeWidth=3;fillColor=#E6FFCC" parent="1" vertex="1">
          <mxGeometry x="343.49999999999994" y="510" width="110" height="90" as="geometry" />
        </mxCell>
        <mxCell id="51" value="" style="endArrow=none;noEdgeStyle=1;strokeColor=#990000;strokeWidth=2" parent="1" source="9" target="11" edge="1">
          <mxGeometry relative="1" as="geometry">
            <mxPoint x="205.00819672131135" y="481" as="sourcePoint" />
            <mxPoint x="400.32786885245895" y="650" as="targetPoint" />
          </mxGeometry>
        </mxCell>
        <mxCell id="52" value="Desired &#xa;functionality" style="text;spacingTop=-5;align=center" parent="1" vertex="1">
          <mxGeometry x="165" y="251" width="30" height="20" as="geometry" />
        </mxCell>
        <mxCell id="53" value="Desired &#xa;functionality" style="text;spacingTop=-5;align=center" parent="1" vertex="1">
          <mxGeometry x="241" y="196" width="30" height="20" as="geometry" />
        </mxCell>
        <mxCell id="54" value="Documentation&#xa;from similar projects" style="text;spacingTop=-5;align=center" parent="1" vertex="1">
          <mxGeometry x="186" y="341" width="30" height="20" as="geometry" />
        </mxCell>
        <mxCell id="55" value="" style="edgeStyle=elbowEdgeStyle;elbow=horizontal;strokeColor=#990000;strokeWidth=2" parent="1" source="5" target="2" edge="1">
          <mxGeometry width="100" height="100" relative="1" as="geometry">
            <mxPoint x="50" y="530" as="sourcePoint" />
            <mxPoint x="150" y="430" as="targetPoint" />
            <Array as="points">
              <mxPoint x="260" y="370" />
            </Array>
          </mxGeometry>
        </mxCell>
        <mxCell id="56" value="" style="edgeStyle=elbowEdgeStyle;elbow=horizontal;strokeColor=#990000;strokeWidth=2" parent="1" source="2" target="5" edge="1">
          <mxGeometry width="100" height="100" relative="1" as="geometry">
            <mxPoint x="50" y="500" as="sourcePoint" />
            <mxPoint x="150" y="400" as="targetPoint" />
            <Array as="points">
              <mxPoint x="280" y="360" />
            </Array>
          </mxGeometry>
        </mxCell>
        <mxCell id="57" value="Elaborate&#xa;cost/benefit&#xa;ratio" style="text;spacingTop=-5;align=center" parent="1" vertex="1">
          <mxGeometry x="306" y="341" width="30" height="20" as="geometry" />
        </mxCell>
        <mxCell id="58" value="" style="edgeStyle=elbowEdgeStyle;elbow=horizontal;strokeColor=#990000;strokeWidth=2" parent="1" source="5" target="6" edge="1">
          <mxGeometry width="100" height="100" relative="1" as="geometry">
            <mxPoint x="380" y="370" as="sourcePoint" />
            <mxPoint x="480" y="270" as="targetPoint" />
            <Array as="points">
              <mxPoint x="440" y="310" />
            </Array>
          </mxGeometry>
        </mxCell>
        <mxCell id="59" value="" style="edgeStyle=elbowEdgeStyle;elbow=horizontal;strokeColor=#990000;strokeWidth=2" parent="1" source="6" target="5" edge="1">
          <mxGeometry width="100" height="100" relative="1" as="geometry">
            <mxPoint x="350" y="370" as="sourcePoint" />
            <mxPoint x="450" y="270" as="targetPoint" />
            <Array as="points">
              <mxPoint x="460" y="320" />
            </Array>
          </mxGeometry>
        </mxCell>
        <mxCell id="60" value="Existing&#xa;documentation" style="text;spacingTop=-5;align=center" parent="1" vertex="1">
          <mxGeometry x="380.0000000000001" y="280.99999999999983" width="30" height="20" as="geometry" />
        </mxCell>
        <mxCell id="61" value="Necessary&#xa;resources" style="text;spacingTop=-5;align=center" parent="1" vertex="1">
          <mxGeometry x="481.0000000000002" y="251.00000000000006" width="30" height="20" as="geometry" />
        </mxCell>
        <mxCell id="62" value="Progress&#xa;reports" style="text;spacingTop=-5;align=center" parent="1" vertex="1">
          <mxGeometry x="545.0000000000001" y="100.00000000000003" width="30" height="20" as="geometry" />
        </mxCell>
        <mxCell id="63" value="Progress&#xa;reports" style="text;spacingTop=-5;align=center" parent="1" vertex="1">
          <mxGeometry x="640" y="146.0000000000001" width="30" height="20" as="geometry" />
        </mxCell>
        <mxCell id="64" value="Progress&#xa;reports" style="text;spacingTop=-5;align=center" parent="1" vertex="1">
          <mxGeometry x="751.0000000000001" y="261.0000000000001" width="30" height="20" as="geometry" />
        </mxCell>
        <mxCell id="65" value="" style="edgeStyle=elbowEdgeStyle;elbow=horizontal;strokeColor=#990000;strokeWidth=2" parent="1" source="6" target="12" edge="1">
          <mxGeometry width="100" height="100" relative="1" as="geometry">
            <mxPoint x="260" y="180.0000000000001" as="sourcePoint" />
            <mxPoint x="360" y="80.00000000000011" as="targetPoint" />
            <Array as="points">
              <mxPoint x="445" y="140" />
            </Array>
          </mxGeometry>
        </mxCell>
        <mxCell id="66" value="" style="edgeStyle=elbowEdgeStyle;elbow=vertical;entryX=0.25;entryY=1;strokeColor=#990000;strokeWidth=2" parent="1" source="8" target="12" edge="1">
          <mxGeometry width="100" height="100" relative="1" as="geometry">
            <mxPoint x="530" y="250" as="sourcePoint" />
            <mxPoint x="630" y="150" as="targetPoint" />
          </mxGeometry>
        </mxCell>
        <mxCell id="67" value="" style="edgeStyle=elbowEdgeStyle;elbow=horizontal;strokeColor=#990000;strokeWidth=2" parent="1" source="7" target="12" edge="1">
          <mxGeometry width="100" height="100" relative="1" as="geometry">
            <mxPoint x="660.0000000000002" y="360" as="sourcePoint" />
            <mxPoint x="760.0000000000002" y="260" as="targetPoint" />
          </mxGeometry>
        </mxCell>
        <mxCell id="68" value="" style="edgeStyle=elbowEdgeStyle;elbow=horizontal;strokeColor=#990000;strokeWidth=2" parent="1" source="8" target="5" edge="1">
          <mxGeometry width="100" height="100" relative="1" as="geometry">
            <mxPoint x="570" y="380" as="sourcePoint" />
            <mxPoint x="510" y="250" as="targetPoint" />
            <Array as="points">
              <mxPoint x="570" y="360" />
            </Array>
          </mxGeometry>
        </mxCell>
        <mxCell id="69" value="" style="edgeStyle=segmentEdgeStyle;strokeColor=#990000;strokeWidth=2" parent="1" source="5" target="8" edge="1">
          <mxGeometry width="100" height="100" relative="1" as="geometry">
            <mxPoint x="340" y="360" as="sourcePoint" />
            <mxPoint x="440" y="260" as="targetPoint" />
            <Array as="points">
              <mxPoint x="520" y="286" />
            </Array>
          </mxGeometry>
        </mxCell>
        <mxCell id="70" value="Existing&#xa;Models" style="text;spacingTop=-5;align=center" parent="1" vertex="1">
          <mxGeometry x="530.0000000000002" y="340.9999999999999" width="30" height="20" as="geometry" />
        </mxCell>
        <mxCell id="71" value="Equipment&#xa;specification" style="text;spacingTop=-5;align=center" parent="1" vertex="1">
          <mxGeometry x="615" y="341" width="30" height="20" as="geometry" />
        </mxCell>
        <mxCell id="72" value="" style="edgeStyle=elbowEdgeStyle;elbow=vertical;strokeColor=#990000;strokeWidth=2" parent="1" source="5" target="7" edge="1">
          <mxGeometry width="100" height="100" relative="1" as="geometry">
            <mxPoint x="500" y="500" as="sourcePoint" />
            <mxPoint x="600" y="400" as="targetPoint" />
            <Array as="points">
              <mxPoint x="650" y="410" />
            </Array>
          </mxGeometry>
        </mxCell>
        <mxCell id="73" value="" style="edgeStyle=elbowEdgeStyle;elbow=vertical;strokeColor=#990000;strokeWidth=2" parent="1" source="7" target="5" edge="1">
          <mxGeometry width="100" height="100" relative="1" as="geometry">
            <mxPoint x="460" y="500" as="sourcePoint" />
            <mxPoint x="560" y="400" as="targetPoint" />
            <Array as="points">
              <mxPoint x="650" y="430" />
            </Array>
          </mxGeometry>
        </mxCell>
        <mxCell id="74" value="Resources" style="text;spacingTop=-5;align=center" parent="1" vertex="1">
          <mxGeometry x="621" y="390.99999999999994" width="30" height="20" as="geometry" />
        </mxCell>
        <mxCell id="75" value="System &#xa;Advantages &#xa;and Limitations" style="text;spacingTop=-5;align=center" parent="1" vertex="1">
          <mxGeometry x="630" y="431.0000000000001" width="30" height="20" as="geometry" />
        </mxCell>
        <mxCell id="76" value="" style="edgeStyle=elbowEdgeStyle;elbow=horizontal;strokeColor=#990000;strokeWidth=2" parent="1" source="9" target="5" edge="1">
          <mxGeometry width="100" height="100" relative="1" as="geometry">
            <mxPoint x="420" y="580" as="sourcePoint" />
            <mxPoint x="520" y="480" as="targetPoint" />
            <Array as="points">
              <mxPoint x="570" y="470" />
            </Array>
          </mxGeometry>
        </mxCell>
        <mxCell id="77" value="" style="edgeStyle=elbowEdgeStyle;elbow=horizontal;strokeColor=#990000;strokeWidth=2" parent="1" source="5" target="9" edge="1">
          <mxGeometry width="100" height="100" relative="1" as="geometry">
            <mxPoint x="400" y="590" as="sourcePoint" />
            <mxPoint x="500" y="490" as="targetPoint" />
            <Array as="points">
              <mxPoint x="560" y="480" />
            </Array>
          </mxGeometry>
        </mxCell>
        <mxCell id="78" value="" style="edgeStyle=elbowEdgeStyle;elbow=horizontal;strokeColor=#990000;strokeWidth=2" parent="1" source="15" target="9" edge="1">
          <mxGeometry width="100" height="100" relative="1" as="geometry">
            <mxPoint x="430" y="700" as="sourcePoint" />
            <mxPoint x="530" y="600" as="targetPoint" />
          </mxGeometry>
        </mxCell>
        <mxCell id="79" value="Hardware and&#xa;Software specs" style="text;spacingTop=-5;align=center" parent="1" vertex="1">
          <mxGeometry x="625" y="610" width="30" height="20" as="geometry" />
        </mxCell>
        <mxCell id="81" value="" style="edgeStyle=elbowEdgeStyle;elbow=horizontal;exitX=0;exitY=0.75;strokeColor=#990000;strokeWidth=2" parent="1" source="9" target="13" edge="1">
          <mxGeometry width="100" height="100" relative="1" as="geometry">
            <mxPoint x="420" y="730" as="sourcePoint" />
            <mxPoint x="520" y="630" as="targetPoint" />
            <Array as="points">
              <mxPoint x="470" y="630" />
            </Array>
          </mxGeometry>
        </mxCell>
        <mxCell id="82" value="Progress&#xa;Reports" style="text;spacingTop=-5;align=center" parent="1" vertex="1">
          <mxGeometry x="481.0000000000004" y="610.0000000000001" width="30" height="20" as="geometry" />
        </mxCell>
        <mxCell id="83" value="" style="edgeStyle=elbowEdgeStyle;elbow=horizontal;strokeColor=#990000;strokeWidth=2" parent="1" source="11" target="13" edge="1">
          <mxGeometry width="100" height="100" relative="1" as="geometry">
            <mxPoint x="200" y="660.0000000000002" as="sourcePoint" />
            <mxPoint x="230.0000000000001" y="650" as="targetPoint" />
          </mxGeometry>
        </mxCell>
        <mxCell id="84" value="Progress&#xa;Reports" style="text;spacingTop=-5;align=center" parent="1" vertex="1">
          <mxGeometry x="410.00000000000017" y="610.0000000000002" width="30" height="20" as="geometry" />
        </mxCell>
        <mxCell id="85" value="" style="edgeStyle=elbowEdgeStyle;elbow=horizontal;strokeColor=#990000;strokeWidth=2" parent="1" source="10" target="13" edge="1">
          <mxGeometry width="100" height="100" relative="1" as="geometry">
            <mxPoint x="130.0000000000001" y="740" as="sourcePoint" />
            <mxPoint x="230.0000000000001" y="640" as="targetPoint" />
            <Array as="points">
              <mxPoint x="244" y="630" />
            </Array>
          </mxGeometry>
        </mxCell>
        <mxCell id="86" value="Progress&#xa;Reports" style="text;spacingTop=-5;align=center" parent="1" vertex="1">
          <mxGeometry x="255.99999999999994" y="650.0000000000001" width="30" height="20" as="geometry" />
        </mxCell>
        <mxCell id="87" value="" style="edgeStyle=elbowEdgeStyle;elbow=vertical;strokeColor=#990000;strokeWidth=2" parent="1" source="10" target="14" edge="1">
          <mxGeometry width="100" height="100" relative="1" as="geometry">
            <mxPoint x="70" y="740" as="sourcePoint" />
            <mxPoint x="170" y="640" as="targetPoint" />
          </mxGeometry>
        </mxCell>
        <mxCell id="88" value="" style="edgeStyle=elbowEdgeStyle;elbow=horizontal;strokeColor=#990000;strokeWidth=2" parent="1" source="5" target="11" edge="1">
          <mxGeometry width="100" height="100" relative="1" as="geometry">
            <mxPoint x="50" y="500" as="sourcePoint" />
            <mxPoint x="150" y="400" as="targetPoint" />
            <Array as="points">
              <mxPoint x="390" y="470" />
            </Array>
          </mxGeometry>
        </mxCell>
        <mxCell id="89" value="" style="edgeStyle=elbowEdgeStyle;elbow=horizontal;strokeColor=#990000;strokeWidth=2" parent="1" source="11" target="5" edge="1">
          <mxGeometry width="100" height="100" relative="1" as="geometry">
            <mxPoint x="59.999999999999886" y="510" as="sourcePoint" />
            <mxPoint x="159.9999999999999" y="410" as="targetPoint" />
            <Array as="points">
              <mxPoint x="410" y="470" />
            </Array>
          </mxGeometry>
        </mxCell>
        <mxCell id="90" value="Version&#xa;specs" style="text;spacingTop=-5;align=center" parent="1" vertex="1">
          <mxGeometry x="261" y="461" width="30" height="20" as="geometry" />
        </mxCell>
        <mxCell id="91" value="Certificates,&#xa;system&#xa;libraries" style="text;spacingTop=-5;align=center" parent="1" vertex="1">
          <mxGeometry x="180" y="461.0000000000002" width="30" height="20" as="geometry" />
        </mxCell>
        <mxCell id="92" value="" style="edgeStyle=elbowEdgeStyle;elbow=horizontal;strokeColor=#990000;strokeWidth=2" parent="1" source="5" target="10" edge="1">
          <mxGeometry width="100" height="100" relative="1" as="geometry">
            <mxPoint x="30.000000000000114" y="500" as="sourcePoint" />
            <mxPoint x="130.0000000000001" y="400" as="targetPoint" />
            <Array as="points">
              <mxPoint x="250" y="470" />
            </Array>
          </mxGeometry>
        </mxCell>
        <mxCell id="93" value="" style="edgeStyle=elbowEdgeStyle;elbow=horizontal;strokeColor=#990000;strokeWidth=2" parent="1" source="10" target="5" edge="1">
          <mxGeometry width="100" height="100" relative="1" as="geometry">
            <mxPoint x="40" y="510" as="sourcePoint" />
            <mxPoint x="140" y="410" as="targetPoint" />
            <Array as="points">
              <mxPoint x="230" y="470" />
            </Array>
          </mxGeometry>
        </mxCell>
        <mxCell id="94" value="System&#xa;specs" style="text;spacingTop=-5;align=center" parent="1" vertex="1">
          <mxGeometry x="139.99999999999994" y="565.0000000000001" width="30" height="20" as="geometry" />
        </mxCell>
        <mxCell id="95" value="Design&#xa;specs" style="text;spacingTop=-5;align=center" parent="1" vertex="1">
          <mxGeometry x="423.49999999999994" y="461.0000000000002" width="30" height="20" as="geometry" />
        </mxCell>
        <mxCell id="96" value="System&#xa;version" style="text;spacingTop=-5;align=center" parent="1" vertex="1">
          <mxGeometry x="350.9999999999998" y="461" width="30" height="20" as="geometry" />
        </mxCell>
      </root>
    </mxGraphModel>
  </diagram>
  <diagram name="DialogueFlow" id="sgcF6N-xQ2roD8NnJbRr">
    <mxGraphModel dx="1186" dy="773" grid="0" gridSize="10" guides="1" tooltips="1" connect="1" arrows="1" fold="1" page="1" pageScale="1" pageWidth="826" pageHeight="1169" background="#F8CECC" math="0" shadow="0">
      <root>
        <mxCell id="8GD9nCWIn11U9y9nbCpM-0" />
        <mxCell id="8GD9nCWIn11U9y9nbCpM-1" parent="8GD9nCWIn11U9y9nbCpM-0" />
        <mxCell id="O8mLb7zLuLprbMkiuQk7-39" style="edgeStyle=orthogonalEdgeStyle;rounded=0;orthogonalLoop=1;jettySize=auto;html=1;exitX=1;exitY=0.5;exitDx=0;exitDy=0;entryX=0;entryY=0.5;entryDx=0;entryDy=0;strokeColor=#FF0000;" parent="8GD9nCWIn11U9y9nbCpM-1" source="8GD9nCWIn11U9y9nbCpM-67" target="8GD9nCWIn11U9y9nbCpM-68" edge="1">
          <mxGeometry relative="1" as="geometry">
            <Array as="points">
              <mxPoint x="187" y="163" />
              <mxPoint x="187" y="101" />
            </Array>
          </mxGeometry>
        </mxCell>
        <mxCell id="8GD9nCWIn11U9y9nbCpM-67" value="&lt;b&gt;&lt;font color=&quot;#ff0000&quot; style=&quot;font-size: 12px&quot;&gt;INTENT&lt;/font&gt;&lt;/b&gt;" style="rounded=1;whiteSpace=wrap;html=1;strokeWidth=2;fillColor=#fff2cc;strokeColor=#d6b656;" parent="8GD9nCWIn11U9y9nbCpM-1" vertex="1">
          <mxGeometry x="59" y="148" width="78" height="30" as="geometry" />
        </mxCell>
        <mxCell id="8GD9nCWIn11U9y9nbCpM-68" value="&lt;b&gt;&lt;font color=&quot;#ff0000&quot; style=&quot;font-size: 10px&quot;&gt;FallBack&amp;nbsp;&lt;/font&gt;&lt;/b&gt;" style="rounded=1;whiteSpace=wrap;html=1;strokeWidth=2;fillColor=#fff2cc;strokeColor=#d6b656;" parent="8GD9nCWIn11U9y9nbCpM-1" vertex="1">
          <mxGeometry x="237" y="89" width="54" height="24" as="geometry" />
        </mxCell>
        <mxCell id="8GD9nCWIn11U9y9nbCpM-69" value="&lt;b&gt;&lt;font color=&quot;#ff0000&quot; style=&quot;font-size: 10px&quot;&gt;Default Welcome&lt;/font&gt;&lt;/b&gt;" style="rounded=1;whiteSpace=wrap;html=1;strokeWidth=2;fillColor=#fff2cc;strokeColor=#d6b656;" parent="8GD9nCWIn11U9y9nbCpM-1" vertex="1">
          <mxGeometry x="202" y="128" width="89" height="26" as="geometry" />
        </mxCell>
        <mxCell id="8GD9nCWIn11U9y9nbCpM-70" value="&lt;b&gt;&lt;font color=&quot;#ff0000&quot; style=&quot;font-size: 16px&quot;&gt;ENTITIES&lt;/font&gt;&lt;/b&gt;" style="rounded=1;whiteSpace=wrap;html=1;strokeWidth=2;fillColor=#fff2cc;strokeColor=#d6b656;" parent="8GD9nCWIn11U9y9nbCpM-1" vertex="1">
          <mxGeometry x="46" y="465.5" width="90" height="29" as="geometry" />
        </mxCell>
        <mxCell id="8GD9nCWIn11U9y9nbCpM-72" value="&lt;b&gt;Entity :&amp;nbsp;&lt;br&gt;&lt;/b&gt;- what information is useful for answering the user’s request&amp;nbsp;&lt;br&gt;- Dynamic Var" style="text;html=1;align=left;verticalAlign=middle;resizable=0;points=[];autosize=1;fillColor=#f9f7ed;strokeColor=#36393d;" parent="8GD9nCWIn11U9y9nbCpM-1" vertex="1">
          <mxGeometry x="47" y="414" width="330" height="46" as="geometry" />
        </mxCell>
        <mxCell id="8GD9nCWIn11U9y9nbCpM-74" value="&lt;b&gt;Intent:&lt;/b&gt;&lt;br&gt;&lt;div&gt;- Whenever the user ask a question, it will try to match in corresponding Intent.&lt;/div&gt;&lt;div&gt;- An intent houses elements and logic to parse information from the user and answer their requests&lt;/div&gt;&lt;div&gt;- Match typical user queries&lt;/div&gt;" style="text;html=1;align=left;verticalAlign=middle;resizable=0;points=[];autosize=1;fillColor=#f9f7ed;strokeColor=#36393d;" parent="8GD9nCWIn11U9y9nbCpM-1" vertex="1">
          <mxGeometry x="52" y="15" width="534" height="60" as="geometry" />
        </mxCell>
        <mxCell id="8GD9nCWIn11U9y9nbCpM-76" value="&lt;b&gt;&lt;font color=&quot;#ff0000&quot; style=&quot;font-size: 16px&quot;&gt;FULFILMENT&lt;/font&gt;&lt;/b&gt;" style="rounded=1;whiteSpace=wrap;html=1;strokeWidth=2;fillColor=#fff2cc;strokeColor=#d6b656;" parent="8GD9nCWIn11U9y9nbCpM-1" vertex="1">
          <mxGeometry x="22" y="1302" width="111" height="28" as="geometry" />
        </mxCell>
        <mxCell id="8GD9nCWIn11U9y9nbCpM-77" value="&lt;b&gt;Fulfilment :&amp;nbsp;&lt;br&gt;&lt;/b&gt;&lt;div&gt;- Fulfillment is where your custom code goes and bind your intent to cloud functions&lt;/div&gt;&lt;div&gt;- Add some custom code you can do it under the fulfillment tab.&lt;/div&gt;&lt;div&gt;- It works on cloud functions&lt;/div&gt;&lt;div&gt;&lt;br&gt;&lt;/div&gt;&lt;div&gt;***&amp;nbsp;&amp;nbsp;Fulfillment is the &lt;font color=&quot;#ff0000&quot;&gt;mapping of an action&lt;/font&gt; using &lt;font color=&quot;#ff0000&quot;&gt;code&lt;/font&gt; that is deployed &lt;font color=&quot;#ff0000&quot;&gt;outside of dialogue flow.&lt;/font&gt;&lt;/div&gt;&lt;div&gt;&lt;font color=&quot;#ff0000&quot;&gt;Agent execute Business logic on intent by internet basis&lt;/font&gt;&lt;/div&gt;&lt;div&gt;&lt;font color=&quot;#ff0000&quot;&gt;&lt;br&gt;&lt;/font&gt;&lt;/div&gt;" style="text;html=1;align=left;verticalAlign=middle;resizable=0;points=[];autosize=1;fillColor=#f9f7ed;strokeColor=#36393d;" parent="8GD9nCWIn11U9y9nbCpM-1" vertex="1">
          <mxGeometry x="22" y="1183" width="512" height="116" as="geometry" />
        </mxCell>
        <mxCell id="8GD9nCWIn11U9y9nbCpM-79" value="&lt;b&gt;&lt;font color=&quot;#ff0000&quot; style=&quot;font-size: 16px&quot;&gt;CONTEX&lt;/font&gt;&lt;/b&gt;" style="rounded=1;whiteSpace=wrap;html=1;strokeWidth=2;fillColor=#fff2cc;strokeColor=#d6b656;" parent="8GD9nCWIn11U9y9nbCpM-1" vertex="1">
          <mxGeometry x="47" y="604" width="90" height="29" as="geometry" />
        </mxCell>
        <mxCell id="8GD9nCWIn11U9y9nbCpM-80" value="&lt;b&gt;CONTEX :&amp;nbsp;&lt;br&gt;&lt;/b&gt;Contexts allows the agent to control conversation flows." style="text;html=1;align=left;verticalAlign=middle;resizable=0;points=[];autosize=1;fillColor=#f9f7ed;strokeColor=#36393d;" parent="8GD9nCWIn11U9y9nbCpM-1" vertex="1">
          <mxGeometry x="47" y="565" width="306" height="32" as="geometry" />
        </mxCell>
        <mxCell id="8GD9nCWIn11U9y9nbCpM-81" value="The machine learning model checks the query against every intent in the agent, &lt;br&gt;&amp;nbsp; &amp;nbsp; &amp;nbsp;gives every intent a score, and the highest-scoring intent is matched. &lt;br&gt;If the &lt;span style=&quot;background-color: rgb(255 , 255 , 102)&quot;&gt;highest scoring intent has a very low score&lt;/span&gt;, the &lt;b&gt;&lt;font color=&quot;#ff3333&quot;&gt;fallback&lt;/font&gt;&lt;/b&gt; intent is matched." style="text;html=1;align=left;verticalAlign=middle;resizable=0;points=[];autosize=1;fillColor=#f9f7ed;strokeColor=#36393d;" parent="8GD9nCWIn11U9y9nbCpM-1" vertex="1">
          <mxGeometry x="314" y="82" width="435" height="46" as="geometry" />
        </mxCell>
        <mxCell id="O8mLb7zLuLprbMkiuQk7-0" value="Training Phrases" style="text;html=1;align=center;verticalAlign=middle;resizable=0;points=[];autosize=1;gradientColor=#ffd966;fillColor=#fff2cc;strokeColor=#d6b656;" parent="8GD9nCWIn11U9y9nbCpM-1" vertex="1">
          <mxGeometry x="94" y="201" width="100" height="18" as="geometry" />
        </mxCell>
        <mxCell id="O8mLb7zLuLprbMkiuQk7-52" style="edgeStyle=orthogonalEdgeStyle;rounded=0;orthogonalLoop=1;jettySize=auto;html=1;strokeColor=#FF0000;" parent="8GD9nCWIn11U9y9nbCpM-1" source="O8mLb7zLuLprbMkiuQk7-1" edge="1">
          <mxGeometry relative="1" as="geometry">
            <mxPoint x="385" y="181" as="targetPoint" />
            <Array as="points">
              <mxPoint x="209" y="244" />
              <mxPoint x="365" y="244" />
              <mxPoint x="365" y="181" />
            </Array>
          </mxGeometry>
        </mxCell>
        <mxCell id="O8mLb7zLuLprbMkiuQk7-1" value="Action and Parameter Tabel" style="text;html=1;align=center;verticalAlign=middle;resizable=0;points=[];autosize=1;gradientColor=#ffd966;fillColor=#fff2cc;strokeColor=#d6b656;" parent="8GD9nCWIn11U9y9nbCpM-1" vertex="1">
          <mxGeometry x="130" y="263" width="158" height="18" as="geometry" />
        </mxCell>
        <mxCell id="O8mLb7zLuLprbMkiuQk7-2" value="" style="endArrow=classic;html=1;strokeColor=#FF0000;entryX=-0.003;entryY=0.46;entryDx=0;entryDy=0;entryPerimeter=0;exitX=0.25;exitY=1;exitDx=0;exitDy=0;" parent="8GD9nCWIn11U9y9nbCpM-1" source="8GD9nCWIn11U9y9nbCpM-67" target="O8mLb7zLuLprbMkiuQk7-0" edge="1">
          <mxGeometry width="50" height="50" relative="1" as="geometry">
            <mxPoint x="368" y="124" as="sourcePoint" />
            <mxPoint x="418" y="74" as="targetPoint" />
            <Array as="points">
              <mxPoint x="79" y="209" />
            </Array>
          </mxGeometry>
        </mxCell>
        <mxCell id="O8mLb7zLuLprbMkiuQk7-3" value="" style="endArrow=classic;html=1;strokeColor=#FF0000;entryX=-0.003;entryY=0.46;entryDx=0;entryDy=0;entryPerimeter=0;" parent="8GD9nCWIn11U9y9nbCpM-1" edge="1">
          <mxGeometry width="50" height="50" relative="1" as="geometry">
            <mxPoint x="105" y="223" as="sourcePoint" />
            <mxPoint x="133.19999999999993" y="254.2800000000001" as="targetPoint" />
            <Array as="points">
              <mxPoint x="105" y="254" />
            </Array>
          </mxGeometry>
        </mxCell>
        <mxCell id="O8mLb7zLuLprbMkiuQk7-4" value="date, time, size etc" style="text;html=1;align=center;verticalAlign=middle;resizable=0;points=[];autosize=1;gradientColor=#ffd966;fillColor=#fff2cc;strokeColor=#d6b656;" parent="8GD9nCWIn11U9y9nbCpM-1" vertex="1">
          <mxGeometry x="303" y="268" width="110" height="18" as="geometry" />
        </mxCell>
        <mxCell id="O8mLb7zLuLprbMkiuQk7-7" value="" style="endArrow=classic;html=1;strokeColor=#FF0000;exitX=0.998;exitY=0.412;exitDx=0;exitDy=0;exitPerimeter=0;" parent="8GD9nCWIn11U9y9nbCpM-1" source="O8mLb7zLuLprbMkiuQk7-1" target="O8mLb7zLuLprbMkiuQk7-4" edge="1">
          <mxGeometry width="50" height="50" relative="1" as="geometry">
            <mxPoint x="116" y="249" as="sourcePoint" />
            <mxPoint x="131.19999999999993" y="280.2800000000001" as="targetPoint" />
            <Array as="points" />
          </mxGeometry>
        </mxCell>
        <mxCell id="O8mLb7zLuLprbMkiuQk7-8" value="It is used to map different &lt;br&gt;question to 1 type of Intent" style="text;html=1;align=left;verticalAlign=middle;resizable=0;points=[];autosize=1;" parent="8GD9nCWIn11U9y9nbCpM-1" vertex="1">
          <mxGeometry x="198" y="194" width="151" height="32" as="geometry" />
        </mxCell>
        <mxCell id="O8mLb7zLuLprbMkiuQk7-9" value="Response" style="text;html=1;align=center;verticalAlign=middle;resizable=0;points=[];autosize=1;gradientColor=#ffd966;fillColor=#fff2cc;strokeColor=#d6b656;" parent="8GD9nCWIn11U9y9nbCpM-1" vertex="1">
          <mxGeometry x="182" y="297" width="64" height="18" as="geometry" />
        </mxCell>
        <mxCell id="O8mLb7zLuLprbMkiuQk7-10" value="" style="endArrow=classic;html=1;strokeColor=#FF0000;entryX=-0.003;entryY=0.46;entryDx=0;entryDy=0;entryPerimeter=0;exitX=0.25;exitY=1;exitDx=0;exitDy=0;" parent="8GD9nCWIn11U9y9nbCpM-1" edge="1">
          <mxGeometry width="50" height="50" relative="1" as="geometry">
            <mxPoint x="169" y="278" as="sourcePoint" />
            <mxPoint x="184.19999999999993" y="309.2800000000001" as="targetPoint" />
            <Array as="points">
              <mxPoint x="169.5" y="309" />
            </Array>
          </mxGeometry>
        </mxCell>
        <mxCell id="O8mLb7zLuLprbMkiuQk7-11" value="Value of parameter used in response" style="text;html=1;align=center;verticalAlign=middle;resizable=0;points=[];autosize=1;" parent="8GD9nCWIn11U9y9nbCpM-1" vertex="1">
          <mxGeometry x="413" y="268" width="206" height="18" as="geometry" />
        </mxCell>
        <mxCell id="O8mLb7zLuLprbMkiuQk7-12" value="Come at $date, $time, with $size etc" style="text;html=1;align=center;verticalAlign=middle;resizable=0;points=[];autosize=1;gradientColor=#ffd966;fillColor=#fff2cc;strokeColor=#d6b656;" parent="8GD9nCWIn11U9y9nbCpM-1" vertex="1">
          <mxGeometry x="265" y="297" width="203" height="18" as="geometry" />
        </mxCell>
        <mxCell id="O8mLb7zLuLprbMkiuQk7-13" value="Define Synonyms" style="text;html=1;align=center;verticalAlign=middle;resizable=0;points=[];autosize=1;gradientColor=#ffa500;fillColor=#ffcd28;strokeColor=#d79b00;" parent="8GD9nCWIn11U9y9nbCpM-1" vertex="1">
          <mxGeometry x="205" y="466" width="104" height="18" as="geometry" />
        </mxCell>
        <mxCell id="O8mLb7zLuLprbMkiuQk7-15" value="" style="shadow=0;dashed=0;html=1;strokeColor=none;fillColor=#EF8F21;labelPosition=center;verticalLabelPosition=bottom;verticalAlign=top;align=center;outlineConnect=0;shape=mxgraph.veeam.checked;" parent="8GD9nCWIn11U9y9nbCpM-1" vertex="1">
          <mxGeometry x="314" y="466" width="22" height="20" as="geometry" />
        </mxCell>
        <mxCell id="O8mLb7zLuLprbMkiuQk7-16" value="Allow automated expansion" style="text;html=1;align=center;verticalAlign=middle;resizable=0;points=[];autosize=1;gradientColor=#ffa500;fillColor=#ffcd28;strokeColor=#d79b00;" parent="8GD9nCWIn11U9y9nbCpM-1" vertex="1">
          <mxGeometry x="356" y="466" width="157" height="18" as="geometry" />
        </mxCell>
        <mxCell id="O8mLb7zLuLprbMkiuQk7-20" value="" style="shape=image;html=1;verticalAlign=top;verticalLabelPosition=bottom;labelBackgroundColor=#ffffff;imageAspect=0;aspect=fixed;image=https://cdn4.iconfinder.com/data/icons/icocentre-free-icons/114/f-cross_256-128.png;strokeWidth=2;" parent="8GD9nCWIn11U9y9nbCpM-1" vertex="1">
          <mxGeometry x="518" y="465.5" width="21" height="21" as="geometry" />
        </mxCell>
        <mxCell id="O8mLb7zLuLprbMkiuQk7-21" value="size" style="text;html=1;align=center;verticalAlign=middle;resizable=0;points=[];autosize=1;gradientColor=#ffa500;fillColor=#ffcd28;strokeColor=#d79b00;" parent="8GD9nCWIn11U9y9nbCpM-1" vertex="1">
          <mxGeometry x="583" y="466" width="31" height="18" as="geometry" />
        </mxCell>
        <mxCell id="O8mLb7zLuLprbMkiuQk7-24" value="small&lt;br&gt;large&lt;br&gt;Medium" style="text;html=1;align=center;verticalAlign=middle;resizable=0;points=[];autosize=1;gradientColor=#ffd966;fillColor=#fff2cc;strokeColor=#d6b656;" parent="8GD9nCWIn11U9y9nbCpM-1" vertex="1">
          <mxGeometry x="650" y="453.5" width="53" height="46" as="geometry" />
        </mxCell>
        <mxCell id="O8mLb7zLuLprbMkiuQk7-25" value="" style="endArrow=classic;html=1;strokeColor=#FF0000;exitX=1.003;exitY=0.645;exitDx=0;exitDy=0;exitPerimeter=0;" parent="8GD9nCWIn11U9y9nbCpM-1" source="O8mLb7zLuLprbMkiuQk7-21" target="O8mLb7zLuLprbMkiuQk7-24" edge="1">
          <mxGeometry width="50" height="50" relative="1" as="geometry">
            <mxPoint x="577" y="498" as="sourcePoint" />
            <mxPoint x="627" y="448" as="targetPoint" />
          </mxGeometry>
        </mxCell>
        <mxCell id="O8mLb7zLuLprbMkiuQk7-26" value="pizza_topping" style="text;html=1;align=center;verticalAlign=middle;resizable=0;points=[];autosize=1;gradientColor=#ffa500;fillColor=#ffcd28;strokeColor=#d79b00;" parent="8GD9nCWIn11U9y9nbCpM-1" vertex="1">
          <mxGeometry x="580" y="426" width="84" height="18" as="geometry" />
        </mxCell>
        <mxCell id="O8mLb7zLuLprbMkiuQk7-32" style="edgeStyle=orthogonalEdgeStyle;rounded=0;orthogonalLoop=1;jettySize=auto;html=1;strokeColor=#FF0000;" parent="8GD9nCWIn11U9y9nbCpM-1" source="O8mLb7zLuLprbMkiuQk7-27" target="O8mLb7zLuLprbMkiuQk7-30" edge="1">
          <mxGeometry relative="1" as="geometry" />
        </mxCell>
        <mxCell id="O8mLb7zLuLprbMkiuQk7-27" value="&lt;b&gt;In Intent map Entities&lt;/b&gt; : can I order&amp;nbsp;&lt;span style=&quot;background-color: rgb(255 , 217 , 102)&quot;&gt;&lt;font color=&quot;#ff0000&quot;&gt;Large&lt;/font&gt;&lt;/span&gt; &lt;font color=&quot;#ff0000&quot; style=&quot;background-color: rgb(255 , 255 , 51)&quot;&gt;cheese&lt;/font&gt; Pizza" style="text;html=1;align=center;verticalAlign=middle;resizable=0;points=[];autosize=1;" parent="8GD9nCWIn11U9y9nbCpM-1" vertex="1">
          <mxGeometry x="420.5" y="345" width="307" height="18" as="geometry" />
        </mxCell>
        <mxCell id="O8mLb7zLuLprbMkiuQk7-28" value="" style="endArrow=classic;html=1;strokeColor=#FF0000;exitX=0.999;exitY=0.496;exitDx=0;exitDy=0;exitPerimeter=0;entryX=0.661;entryY=0.046;entryDx=0;entryDy=0;entryPerimeter=0;" parent="8GD9nCWIn11U9y9nbCpM-1" source="O8mLb7zLuLprbMkiuQk7-24" target="O8mLb7zLuLprbMkiuQk7-27" edge="1">
          <mxGeometry width="50" height="50" relative="1" as="geometry">
            <mxPoint x="329" y="336" as="sourcePoint" />
            <mxPoint x="379" y="286" as="targetPoint" />
            <Array as="points">
              <mxPoint x="727" y="476" />
              <mxPoint x="727" y="327" />
              <mxPoint x="623" y="327" />
            </Array>
          </mxGeometry>
        </mxCell>
        <mxCell id="O8mLb7zLuLprbMkiuQk7-29" value="" style="endArrow=classic;html=1;strokeColor=#FF0000;entryX=0.796;entryY=1.042;entryDx=0;entryDy=0;entryPerimeter=0;" parent="8GD9nCWIn11U9y9nbCpM-1" target="O8mLb7zLuLprbMkiuQk7-27" edge="1">
          <mxGeometry width="50" height="50" relative="1" as="geometry">
            <mxPoint x="665" y="437" as="sourcePoint" />
            <mxPoint x="379" y="286" as="targetPoint" />
            <Array as="points">
              <mxPoint x="665" y="437" />
              <mxPoint x="676" y="437" />
              <mxPoint x="676" y="385" />
              <mxPoint x="665" y="385" />
            </Array>
          </mxGeometry>
        </mxCell>
        <mxCell id="O8mLb7zLuLprbMkiuQk7-30" value="Map Entities in Intent (Training Phrases)&lt;br&gt;Updates Action and Parameters section" style="text;html=1;align=center;verticalAlign=middle;resizable=0;points=[];autosize=1;gradientColor=#ffa500;fillColor=#ffcd28;strokeColor=#d79b00;" parent="8GD9nCWIn11U9y9nbCpM-1" vertex="1">
          <mxGeometry x="152" y="338" width="224" height="32" as="geometry" />
        </mxCell>
        <mxCell id="O8mLb7zLuLprbMkiuQk7-31" value="" style="endArrow=classic;html=1;strokeColor=#FF0000;entryX=-0.004;entryY=0.678;entryDx=0;entryDy=0;entryPerimeter=0;exitX=0.032;exitY=0.958;exitDx=0;exitDy=0;exitPerimeter=0;" parent="8GD9nCWIn11U9y9nbCpM-1" source="O8mLb7zLuLprbMkiuQk7-0" target="O8mLb7zLuLprbMkiuQk7-30" edge="1">
          <mxGeometry width="50" height="50" relative="1" as="geometry">
            <mxPoint x="116" y="229" as="sourcePoint" />
            <mxPoint x="131.19999999999993" y="260.2800000000001" as="targetPoint" />
            <Array as="points">
              <mxPoint x="97" y="360" />
            </Array>
          </mxGeometry>
        </mxCell>
        <mxCell id="O8mLb7zLuLprbMkiuQk7-33" value="" style="endArrow=classic;html=1;strokeColor=#FF0000;exitX=0.101;exitY=0.011;exitDx=0;exitDy=0;exitPerimeter=0;entryX=0.141;entryY=0.962;entryDx=0;entryDy=0;entryPerimeter=0;" parent="8GD9nCWIn11U9y9nbCpM-1" source="O8mLb7zLuLprbMkiuQk7-30" target="O8mLb7zLuLprbMkiuQk7-1" edge="1">
          <mxGeometry width="50" height="50" relative="1" as="geometry">
            <mxPoint x="329" y="409" as="sourcePoint" />
            <mxPoint x="144" y="281" as="targetPoint" />
            <Array as="points">
              <mxPoint x="175" y="320" />
              <mxPoint x="152" y="320" />
            </Array>
          </mxGeometry>
        </mxCell>
        <mxCell id="O8mLb7zLuLprbMkiuQk7-37" value="Using parameters Response &lt;br&gt;updates with dynamic response" style="text;html=1;align=center;verticalAlign=middle;resizable=0;points=[];autosize=1;" parent="8GD9nCWIn11U9y9nbCpM-1" vertex="1">
          <mxGeometry x="472" y="290" width="178" height="32" as="geometry" />
        </mxCell>
        <mxCell id="O8mLb7zLuLprbMkiuQk7-38" value="Update List" style="text;html=1;align=center;verticalAlign=middle;resizable=0;points=[];autosize=1;rotation=-90;" parent="8GD9nCWIn11U9y9nbCpM-1" vertex="1">
          <mxGeometry x="98" y="307" width="71" height="18" as="geometry" />
        </mxCell>
        <mxCell id="O8mLb7zLuLprbMkiuQk7-40" value="" style="endArrow=classic;html=1;strokeColor=#FF0000;entryX=0;entryY=0.5;entryDx=0;entryDy=0;" parent="8GD9nCWIn11U9y9nbCpM-1" target="8GD9nCWIn11U9y9nbCpM-69" edge="1">
          <mxGeometry width="50" height="50" relative="1" as="geometry">
            <mxPoint x="188" y="141" as="sourcePoint" />
            <mxPoint x="379" y="214" as="targetPoint" />
          </mxGeometry>
        </mxCell>
        <mxCell id="O8mLb7zLuLprbMkiuQk7-42" value="Required" style="text;html=1;align=center;verticalAlign=middle;resizable=0;points=[];autosize=1;fillColor=#e3c800;strokeColor=#B09500;fontColor=#ffffff;" parent="8GD9nCWIn11U9y9nbCpM-1" vertex="1">
          <mxGeometry x="395" y="132" width="59" height="18" as="geometry" />
        </mxCell>
        <mxCell id="O8mLb7zLuLprbMkiuQk7-43" value="Parameter Name" style="text;html=1;align=center;verticalAlign=middle;resizable=0;points=[];autosize=1;fillColor=#e3c800;strokeColor=#B09500;fontColor=#ffffff;" parent="8GD9nCWIn11U9y9nbCpM-1" vertex="1">
          <mxGeometry x="395" y="154" width="101" height="18" as="geometry" />
        </mxCell>
        <mxCell id="O8mLb7zLuLprbMkiuQk7-44" value="Entity" style="text;html=1;align=center;verticalAlign=middle;resizable=0;points=[];autosize=1;fillColor=#e3c800;strokeColor=#B09500;fontColor=#ffffff;" parent="8GD9nCWIn11U9y9nbCpM-1" vertex="1">
          <mxGeometry x="395" y="176" width="40" height="18" as="geometry" />
        </mxCell>
        <mxCell id="O8mLb7zLuLprbMkiuQk7-46" value="Value" style="text;html=1;align=center;verticalAlign=middle;resizable=0;points=[];autosize=1;fillColor=#e3c800;strokeColor=#B09500;fontColor=#ffffff;" parent="8GD9nCWIn11U9y9nbCpM-1" vertex="1">
          <mxGeometry x="395" y="197" width="40" height="18" as="geometry" />
        </mxCell>
        <mxCell id="O8mLb7zLuLprbMkiuQk7-47" value="List" style="text;html=1;align=center;verticalAlign=middle;resizable=0;points=[];autosize=1;fillColor=#e3c800;strokeColor=#B09500;fontColor=#ffffff;" parent="8GD9nCWIn11U9y9nbCpM-1" vertex="1">
          <mxGeometry x="395" y="219" width="29" height="18" as="geometry" />
        </mxCell>
        <mxCell id="O8mLb7zLuLprbMkiuQk7-54" style="edgeStyle=orthogonalEdgeStyle;rounded=0;orthogonalLoop=1;jettySize=auto;html=1;strokeColor=#FF0000;" parent="8GD9nCWIn11U9y9nbCpM-1" source="O8mLb7zLuLprbMkiuQk7-48" target="O8mLb7zLuLprbMkiuQk7-49" edge="1">
          <mxGeometry relative="1" as="geometry" />
        </mxCell>
        <mxCell id="O8mLb7zLuLprbMkiuQk7-48" value="Prompts" style="text;html=1;align=center;verticalAlign=middle;resizable=0;points=[];autosize=1;fillColor=#e3c800;strokeColor=#B09500;fontColor=#ffffff;" parent="8GD9nCWIn11U9y9nbCpM-1" vertex="1">
          <mxGeometry x="395" y="242" width="55" height="18" as="geometry" />
        </mxCell>
        <mxCell id="O8mLb7zLuLprbMkiuQk7-58" style="edgeStyle=orthogonalEdgeStyle;rounded=0;orthogonalLoop=1;jettySize=auto;html=1;entryX=-0.014;entryY=0.761;entryDx=0;entryDy=0;entryPerimeter=0;strokeColor=#FF0000;" parent="8GD9nCWIn11U9y9nbCpM-1" source="O8mLb7zLuLprbMkiuQk7-49" target="O8mLb7zLuLprbMkiuQk7-55" edge="1">
          <mxGeometry relative="1" as="geometry">
            <Array as="points">
              <mxPoint x="535" y="222" />
            </Array>
          </mxGeometry>
        </mxCell>
        <mxCell id="O8mLb7zLuLprbMkiuQk7-49" value="Default Prompt" style="text;html=1;align=center;verticalAlign=middle;resizable=0;points=[];autosize=1;fillColor=#fff2cc;strokeColor=#d6b656;" parent="8GD9nCWIn11U9y9nbCpM-1" vertex="1">
          <mxGeometry x="490" y="231" width="90" height="18" as="geometry" />
        </mxCell>
        <mxCell id="O8mLb7zLuLprbMkiuQk7-51" style="edgeStyle=orthogonalEdgeStyle;rounded=0;orthogonalLoop=1;jettySize=auto;html=1;strokeColor=#FF0000;" parent="8GD9nCWIn11U9y9nbCpM-1" edge="1">
          <mxGeometry relative="1" as="geometry">
            <mxPoint x="457" y="141" as="sourcePoint" />
            <mxPoint x="443" y="245" as="targetPoint" />
            <Array as="points">
              <mxPoint x="451" y="141" />
              <mxPoint x="526" y="141" />
              <mxPoint x="526" y="207" />
              <mxPoint x="443" y="207" />
            </Array>
          </mxGeometry>
        </mxCell>
        <mxCell id="O8mLb7zLuLprbMkiuQk7-50" value="" style="shadow=0;dashed=0;html=1;strokeColor=none;fillColor=#EF8F21;labelPosition=center;verticalLabelPosition=bottom;verticalAlign=top;align=center;outlineConnect=0;shape=mxgraph.veeam.checked;" parent="8GD9nCWIn11U9y9nbCpM-1" vertex="1">
          <mxGeometry x="378" y="133" width="17" height="16" as="geometry" />
        </mxCell>
        <mxCell id="O8mLb7zLuLprbMkiuQk7-55" value="Ask question for missing parameter&amp;nbsp;" style="text;html=1;align=center;verticalAlign=middle;resizable=0;points=[];autosize=1;fillColor=#fff2cc;strokeColor=#d6b656;" parent="8GD9nCWIn11U9y9nbCpM-1" vertex="1">
          <mxGeometry x="580" y="208" width="201" height="18" as="geometry" />
        </mxCell>
        <mxCell id="O8mLb7zLuLprbMkiuQk7-66" style="edgeStyle=orthogonalEdgeStyle;rounded=0;orthogonalLoop=1;jettySize=auto;html=1;entryX=0.839;entryY=-0.006;entryDx=0;entryDy=0;entryPerimeter=0;strokeColor=#FF0000;" parent="8GD9nCWIn11U9y9nbCpM-1" source="O8mLb7zLuLprbMkiuQk7-60" target="O8mLb7zLuLprbMkiuQk7-62" edge="1">
          <mxGeometry relative="1" as="geometry" />
        </mxCell>
        <mxCell id="O8mLb7zLuLprbMkiuQk7-60" value="INTENT&amp;nbsp;" style="text;html=1;align=center;verticalAlign=middle;resizable=0;points=[];autosize=1;fillColor=#d80073;strokeColor=#A50040;fontColor=#ffffff;" parent="8GD9nCWIn11U9y9nbCpM-1" vertex="1">
          <mxGeometry x="292" y="659" width="57" height="18" as="geometry" />
        </mxCell>
        <mxCell id="O8mLb7zLuLprbMkiuQk7-64" style="edgeStyle=orthogonalEdgeStyle;rounded=0;orthogonalLoop=1;jettySize=auto;html=1;strokeColor=#FF0000;" parent="8GD9nCWIn11U9y9nbCpM-1" source="O8mLb7zLuLprbMkiuQk7-61" edge="1">
          <mxGeometry relative="1" as="geometry">
            <mxPoint x="332.344827586207" y="658.655172413793" as="targetPoint" />
          </mxGeometry>
        </mxCell>
        <mxCell id="O8mLb7zLuLprbMkiuQk7-61" value="INPUT CONTEX (Active)" style="text;html=1;align=center;verticalAlign=middle;resizable=0;points=[];autosize=1;fillColor=#1ba1e2;strokeColor=#006EAF;fontColor=#ffffff;" parent="8GD9nCWIn11U9y9nbCpM-1" vertex="1">
          <mxGeometry x="140.5" y="628" width="143" height="18" as="geometry" />
        </mxCell>
        <mxCell id="O8mLb7zLuLprbMkiuQk7-62" value="OUTPUT CONTEX" style="text;html=1;align=center;verticalAlign=middle;resizable=0;points=[];autosize=1;fillColor=#0050ef;strokeColor=#001DBC;fontColor=#ffffff;" parent="8GD9nCWIn11U9y9nbCpM-1" vertex="1">
          <mxGeometry x="140.5" y="690" width="112" height="18" as="geometry" />
        </mxCell>
        <mxCell id="O8mLb7zLuLprbMkiuQk7-63" value="close match and if the context is active." style="text;html=1;align=center;verticalAlign=middle;resizable=0;points=[];autosize=1;" parent="8GD9nCWIn11U9y9nbCpM-1" vertex="1">
          <mxGeometry x="303" y="618" width="219" height="18" as="geometry" />
        </mxCell>
        <mxCell id="O8mLb7zLuLprbMkiuQk7-65" value="Maintain the contexts active after the intent matched.&lt;br&gt;This allows the agent to control the conversation flow." style="text;html=1;align=center;verticalAlign=middle;resizable=0;points=[];autosize=1;" parent="8GD9nCWIn11U9y9nbCpM-1" vertex="1">
          <mxGeometry x="259" y="680" width="294" height="32" as="geometry" />
        </mxCell>
        <mxCell id="O8mLb7zLuLprbMkiuQk7-67" value="Intent that corresponds to Action to be taken agent can talk external system" style="text;html=1;align=center;verticalAlign=middle;resizable=0;points=[];autosize=1;gradientColor=#ffa500;fillColor=#ffcd28;strokeColor=#d79b00;" parent="8GD9nCWIn11U9y9nbCpM-1" vertex="1">
          <mxGeometry x="22" y="1334" width="410" height="18" as="geometry" />
        </mxCell>
        <mxCell id="O8mLb7zLuLprbMkiuQk7-75" style="edgeStyle=orthogonalEdgeStyle;rounded=0;orthogonalLoop=1;jettySize=auto;html=1;strokeColor=#FF0000;" parent="8GD9nCWIn11U9y9nbCpM-1" source="O8mLb7zLuLprbMkiuQk7-68" target="O8mLb7zLuLprbMkiuQk7-69" edge="1">
          <mxGeometry relative="1" as="geometry" />
        </mxCell>
        <mxCell id="O8mLb7zLuLprbMkiuQk7-68" value="Intent" style="text;html=1;align=center;verticalAlign=middle;resizable=0;points=[];autosize=1;fillColor=#1ba1e2;strokeColor=#006EAF;fontColor=#ffffff;" parent="8GD9nCWIn11U9y9nbCpM-1" vertex="1">
          <mxGeometry x="35" y="1390" width="40" height="18" as="geometry" />
        </mxCell>
        <mxCell id="O8mLb7zLuLprbMkiuQk7-74" style="edgeStyle=orthogonalEdgeStyle;rounded=0;orthogonalLoop=1;jettySize=auto;html=1;entryX=0.13;entryY=0.77;entryDx=0;entryDy=0;entryPerimeter=0;strokeColor=#FF0000;exitX=1.036;exitY=0.87;exitDx=0;exitDy=0;exitPerimeter=0;" parent="8GD9nCWIn11U9y9nbCpM-1" source="O8mLb7zLuLprbMkiuQk7-69" edge="1">
          <mxGeometry relative="1" as="geometry">
            <mxPoint x="277.1500000000001" y="1416.6" as="targetPoint" />
          </mxGeometry>
        </mxCell>
        <mxCell id="O8mLb7zLuLprbMkiuQk7-69" value="Fullfilment" style="text;html=1;align=center;verticalAlign=middle;resizable=0;points=[];autosize=1;fillColor=#0050ef;strokeColor=#001DBC;fontColor=#ffffff;" parent="8GD9nCWIn11U9y9nbCpM-1" vertex="1">
          <mxGeometry x="106" y="1390" width="65" height="18" as="geometry" />
        </mxCell>
        <mxCell id="O8mLb7zLuLprbMkiuQk7-73" style="edgeStyle=orthogonalEdgeStyle;rounded=0;orthogonalLoop=1;jettySize=auto;html=1;exitX=0.07;exitY=0.4;exitDx=0;exitDy=0;exitPerimeter=0;strokeColor=#FF0000;" parent="8GD9nCWIn11U9y9nbCpM-1" edge="1">
          <mxGeometry relative="1" as="geometry">
            <mxPoint x="172.48275862068965" y="1392.6551724137933" as="targetPoint" />
            <mxPoint x="267.8499999999999" y="1387" as="sourcePoint" />
          </mxGeometry>
        </mxCell>
        <mxCell id="O8mLb7zLuLprbMkiuQk7-70" value="Action to be taken&lt;br&gt;(Webhook)" style="ellipse;shape=cloud;whiteSpace=wrap;html=1;strokeWidth=2;fillColor=#aa00ff;strokeColor=#7700CC;fontColor=#ffffff;" parent="8GD9nCWIn11U9y9nbCpM-1" vertex="1">
          <mxGeometry x="267" y="1352" width="155" height="80" as="geometry" />
        </mxCell>
        <mxCell id="PPCV0okxLA9_Zpehtucu-0" value="LAB 2:&amp;nbsp;&lt;a href=&quot;https://mohameddhaoui.github.io/dataengineering/chatbot2/&quot;&gt;https://mohameddhaoui.github.io/dataengineering/chatbot2/&lt;/a&gt;" style="text;html=1;align=center;verticalAlign=middle;resizable=0;points=[];autosize=1;" parent="8GD9nCWIn11U9y9nbCpM-1" vertex="1">
          <mxGeometry x="46" y="547" width="366" height="18" as="geometry" />
        </mxCell>
        <mxCell id="PPCV0okxLA9_Zpehtucu-2" value="1" style="ellipse;whiteSpace=wrap;html=1;aspect=fixed;" parent="8GD9nCWIn11U9y9nbCpM-1" vertex="1">
          <mxGeometry x="46" y="735.5" width="29" height="29" as="geometry" />
        </mxCell>
        <mxCell id="PPCV0okxLA9_Zpehtucu-3" value="Intent (order.pizza)" style="text;html=1;align=center;verticalAlign=middle;resizable=0;points=[];autosize=1;fillColor=#d80073;strokeColor=#A50040;fontColor=#ffffff;" parent="8GD9nCWIn11U9y9nbCpM-1" vertex="1">
          <mxGeometry x="83" y="741" width="110" height="18" as="geometry" />
        </mxCell>
        <mxCell id="PPCV0okxLA9_Zpehtucu-4" value="Update response to Get Drink order" style="text;html=1;align=center;verticalAlign=middle;resizable=0;points=[];autosize=1;gradientColor=#d5739d;fillColor=#e6d0de;strokeColor=#996185;" parent="8GD9nCWIn11U9y9nbCpM-1" vertex="1">
          <mxGeometry x="254" y="741" width="200" height="18" as="geometry" />
        </mxCell>
        <mxCell id="PPCV0okxLA9_Zpehtucu-5" value="2" style="ellipse;whiteSpace=wrap;html=1;aspect=fixed;" parent="8GD9nCWIn11U9y9nbCpM-1" vertex="1">
          <mxGeometry x="46" y="777" width="29" height="29" as="geometry" />
        </mxCell>
        <mxCell id="PPCV0okxLA9_Zpehtucu-6" value="Intent (order.pizza)" style="text;html=1;align=center;verticalAlign=middle;resizable=0;points=[];autosize=1;fillColor=#d80073;strokeColor=#A50040;fontColor=#ffffff;" parent="8GD9nCWIn11U9y9nbCpM-1" vertex="1">
          <mxGeometry x="83" y="782.5" width="110" height="18" as="geometry" />
        </mxCell>
        <mxCell id="PPCV0okxLA9_Zpehtucu-17" style="edgeStyle=orthogonalEdgeStyle;rounded=0;orthogonalLoop=1;jettySize=auto;html=1;" parent="8GD9nCWIn11U9y9nbCpM-1" source="PPCV0okxLA9_Zpehtucu-7" edge="1">
          <mxGeometry relative="1" as="geometry">
            <mxPoint x="251" y="818" as="targetPoint" />
          </mxGeometry>
        </mxCell>
        <mxCell id="PPCV0okxLA9_Zpehtucu-7" value="Add followup Intent" style="text;html=1;align=center;verticalAlign=middle;resizable=0;points=[];autosize=1;gradientColor=#d5739d;fillColor=#e6d0de;strokeColor=#996185;" parent="8GD9nCWIn11U9y9nbCpM-1" vertex="1">
          <mxGeometry x="300" y="782.5" width="112" height="18" as="geometry" />
        </mxCell>
        <mxCell id="PPCV0okxLA9_Zpehtucu-8" value="Choose &lt;font color=&quot;#ff0000&quot;&gt;YES&lt;/font&gt;" style="text;html=1;align=center;verticalAlign=middle;resizable=0;points=[];autosize=1;gradientColor=#d5739d;fillColor=#e6d0de;strokeColor=#996185;" parent="8GD9nCWIn11U9y9nbCpM-1" vertex="1">
          <mxGeometry x="474" y="782.5" width="79" height="18" as="geometry" />
        </mxCell>
        <mxCell id="PPCV0okxLA9_Zpehtucu-9" value="Intent (order.pizza-yes)" style="text;html=1;align=center;verticalAlign=middle;resizable=0;points=[];autosize=1;fillColor=#d80073;strokeColor=#A50040;fontColor=#ffffff;" parent="8GD9nCWIn11U9y9nbCpM-1" vertex="1">
          <mxGeometry x="180.5" y="819" width="133" height="18" as="geometry" />
        </mxCell>
        <mxCell id="PPCV0okxLA9_Zpehtucu-10" value="New Intenet gets added" style="text;html=1;align=center;verticalAlign=middle;resizable=0;points=[];autosize=1;gradientColor=#ffd966;fillColor=#fff2cc;strokeColor=#d6b656;" parent="8GD9nCWIn11U9y9nbCpM-1" vertex="1">
          <mxGeometry x="335" y="819" width="137" height="18" as="geometry" />
        </mxCell>
        <mxCell id="PPCV0okxLA9_Zpehtucu-22" style="edgeStyle=orthogonalEdgeStyle;rounded=0;orthogonalLoop=1;jettySize=auto;html=1;" parent="8GD9nCWIn11U9y9nbCpM-1" source="PPCV0okxLA9_Zpehtucu-12" target="PPCV0okxLA9_Zpehtucu-13" edge="1">
          <mxGeometry relative="1" as="geometry" />
        </mxCell>
        <mxCell id="PPCV0okxLA9_Zpehtucu-12" value="Default Training Phrases get added" style="text;html=1;align=center;verticalAlign=middle;resizable=0;points=[];autosize=1;fillColor=#d80073;strokeColor=#A50040;fontColor=#ffffff;" parent="8GD9nCWIn11U9y9nbCpM-1" vertex="1">
          <mxGeometry x="226" y="866" width="198" height="18" as="geometry" />
        </mxCell>
        <mxCell id="PPCV0okxLA9_Zpehtucu-13" value="Sure I&#39;ll add a drink" style="text;html=1;align=center;verticalAlign=middle;resizable=0;points=[];autosize=1;fillColor=#fff2cc;strokeColor=#d6b656;" parent="8GD9nCWIn11U9y9nbCpM-1" vertex="1">
          <mxGeometry x="454" y="866" width="112" height="18" as="geometry" />
        </mxCell>
        <mxCell id="PPCV0okxLA9_Zpehtucu-24" style="edgeStyle=orthogonalEdgeStyle;rounded=0;orthogonalLoop=1;jettySize=auto;html=1;" parent="8GD9nCWIn11U9y9nbCpM-1" source="PPCV0okxLA9_Zpehtucu-14" target="PPCV0okxLA9_Zpehtucu-15" edge="1">
          <mxGeometry relative="1" as="geometry" />
        </mxCell>
        <mxCell id="PPCV0okxLA9_Zpehtucu-14" value="In Response section Add new" style="text;html=1;align=center;verticalAlign=middle;resizable=0;points=[];autosize=1;fillColor=#d80073;strokeColor=#A50040;fontColor=#ffffff;" parent="8GD9nCWIn11U9y9nbCpM-1" vertex="1">
          <mxGeometry x="241" y="911" width="168" height="18" as="geometry" />
        </mxCell>
        <mxCell id="PPCV0okxLA9_Zpehtucu-15" value="Great what would you like to have" style="text;html=1;align=center;verticalAlign=middle;resizable=0;points=[];autosize=1;fillColor=#fff2cc;strokeColor=#d6b656;" parent="8GD9nCWIn11U9y9nbCpM-1" vertex="1">
          <mxGeometry x="454" y="911" width="190" height="18" as="geometry" />
        </mxCell>
        <mxCell id="PPCV0okxLA9_Zpehtucu-16" value="3" style="ellipse;whiteSpace=wrap;html=1;aspect=fixed;" parent="8GD9nCWIn11U9y9nbCpM-1" vertex="1">
          <mxGeometry x="559.5" y="775" width="29" height="29" as="geometry" />
        </mxCell>
        <mxCell id="PPCV0okxLA9_Zpehtucu-18" value="" style="endArrow=classic;html=1;exitX=0.336;exitY=0.972;exitDx=0;exitDy=0;exitPerimeter=0;entryX=-0.004;entryY=0.5;entryDx=0;entryDy=0;entryPerimeter=0;" parent="8GD9nCWIn11U9y9nbCpM-1" source="PPCV0okxLA9_Zpehtucu-6" target="PPCV0okxLA9_Zpehtucu-9" edge="1">
          <mxGeometry width="50" height="50" relative="1" as="geometry">
            <mxPoint x="387" y="1065" as="sourcePoint" />
            <mxPoint x="437" y="1015" as="targetPoint" />
            <Array as="points">
              <mxPoint x="120" y="828" />
            </Array>
          </mxGeometry>
        </mxCell>
        <mxCell id="PPCV0okxLA9_Zpehtucu-19" value="4" style="ellipse;whiteSpace=wrap;html=1;aspect=fixed;" parent="8GD9nCWIn11U9y9nbCpM-1" vertex="1">
          <mxGeometry x="83" y="821" width="29" height="29" as="geometry" />
        </mxCell>
        <mxCell id="PPCV0okxLA9_Zpehtucu-20" value="" style="endArrow=classic;html=1;entryX=0.01;entryY=0.444;entryDx=0;entryDy=0;entryPerimeter=0;" parent="8GD9nCWIn11U9y9nbCpM-1" target="PPCV0okxLA9_Zpehtucu-12" edge="1">
          <mxGeometry width="50" height="50" relative="1" as="geometry">
            <mxPoint x="191" y="838" as="sourcePoint" />
            <mxPoint x="437" y="1015" as="targetPoint" />
            <Array as="points">
              <mxPoint x="191" y="874" />
            </Array>
          </mxGeometry>
        </mxCell>
        <mxCell id="PPCV0okxLA9_Zpehtucu-21" value="Add few Training phrase&amp;nbsp;" style="text;html=1;align=center;verticalAlign=middle;resizable=0;points=[];autosize=1;" parent="8GD9nCWIn11U9y9nbCpM-1" vertex="1">
          <mxGeometry x="450" y="850" width="143" height="18" as="geometry" />
        </mxCell>
        <mxCell id="PPCV0okxLA9_Zpehtucu-23" value="" style="endArrow=classic;html=1;entryX=0.006;entryY=0.556;entryDx=0;entryDy=0;entryPerimeter=0;exitX=0.026;exitY=1;exitDx=0;exitDy=0;exitPerimeter=0;" parent="8GD9nCWIn11U9y9nbCpM-1" source="PPCV0okxLA9_Zpehtucu-9" target="PPCV0okxLA9_Zpehtucu-14" edge="1">
          <mxGeometry width="50" height="50" relative="1" as="geometry">
            <mxPoint x="201" y="848" as="sourcePoint" />
            <mxPoint x="237.98000000000002" y="883.992" as="targetPoint" />
            <Array as="points">
              <mxPoint x="184" y="921" />
            </Array>
          </mxGeometry>
        </mxCell>
        <mxCell id="PPCV0okxLA9_Zpehtucu-25" value="Add default response" style="text;html=1;align=center;verticalAlign=middle;resizable=0;points=[];autosize=1;" parent="8GD9nCWIn11U9y9nbCpM-1" vertex="1">
          <mxGeometry x="450" y="895" width="123" height="18" as="geometry" />
        </mxCell>
        <mxCell id="PPCV0okxLA9_Zpehtucu-29" style="edgeStyle=orthogonalEdgeStyle;rounded=0;orthogonalLoop=1;jettySize=auto;html=1;" parent="8GD9nCWIn11U9y9nbCpM-1" source="PPCV0okxLA9_Zpehtucu-26" target="PPCV0okxLA9_Zpehtucu-28" edge="1">
          <mxGeometry relative="1" as="geometry" />
        </mxCell>
        <mxCell id="PPCV0okxLA9_Zpehtucu-26" value="InPut Context gets added to&amp;nbsp;&lt;br&gt;Orderpizza-yes" style="text;html=1;align=center;verticalAlign=middle;resizable=0;points=[];autosize=1;fillColor=#d80073;strokeColor=#A50040;fontColor=#ffffff;" parent="8GD9nCWIn11U9y9nbCpM-1" vertex="1">
          <mxGeometry x="291" y="954" width="162" height="32" as="geometry" />
        </mxCell>
        <mxCell id="PPCV0okxLA9_Zpehtucu-27" value="" style="endArrow=classic;html=1;entryX=0.006;entryY=0.556;entryDx=0;entryDy=0;entryPerimeter=0;" parent="8GD9nCWIn11U9y9nbCpM-1" edge="1">
          <mxGeometry width="50" height="50" relative="1" as="geometry">
            <mxPoint x="257" y="931" as="sourcePoint" />
            <mxPoint x="295.04800000000006" y="970.008" as="targetPoint" />
            <Array as="points">
              <mxPoint x="257" y="970" />
            </Array>
          </mxGeometry>
        </mxCell>
        <mxCell id="PPCV0okxLA9_Zpehtucu-28" value="orderpizza-followup" style="text;html=1;align=center;verticalAlign=middle;resizable=0;points=[];autosize=1;fillColor=#fff2cc;strokeColor=#d6b656;" parent="8GD9nCWIn11U9y9nbCpM-1" vertex="1">
          <mxGeometry x="485" y="961" width="114" height="18" as="geometry" />
        </mxCell>
        <mxCell id="PPCV0okxLA9_Zpehtucu-30" value="OutPut Context gets added for Order.pizza" style="text;html=1;align=center;verticalAlign=middle;resizable=0;points=[];autosize=1;fillColor=#d80073;strokeColor=#A50040;fontColor=#ffffff;" parent="8GD9nCWIn11U9y9nbCpM-1" vertex="1">
          <mxGeometry x="571" y="934" width="237" height="18" as="geometry" />
        </mxCell>
        <mxCell id="PPCV0okxLA9_Zpehtucu-31" value="5" style="ellipse;whiteSpace=wrap;html=1;aspect=fixed;" parent="8GD9nCWIn11U9y9nbCpM-1" vertex="1">
          <mxGeometry x="580" y="864" width="29" height="29" as="geometry" />
        </mxCell>
        <mxCell id="PPCV0okxLA9_Zpehtucu-32" value="6" style="ellipse;whiteSpace=wrap;html=1;aspect=fixed;" parent="8GD9nCWIn11U9y9nbCpM-1" vertex="1">
          <mxGeometry x="646" y="889.5" width="29" height="29" as="geometry" />
        </mxCell>
        <mxCell id="PPCV0okxLA9_Zpehtucu-33" value="7" style="ellipse;whiteSpace=wrap;html=1;aspect=fixed;" parent="8GD9nCWIn11U9y9nbCpM-1" vertex="1">
          <mxGeometry x="212.5" y="955.5" width="29" height="29" as="geometry" />
        </mxCell>
        <mxCell id="PPCV0okxLA9_Zpehtucu-34" value="8" style="ellipse;whiteSpace=wrap;html=1;aspect=fixed;" parent="8GD9nCWIn11U9y9nbCpM-1" vertex="1">
          <mxGeometry x="727.5" y="955.5" width="29" height="29" as="geometry" />
        </mxCell>
        <mxCell id="PPCV0okxLA9_Zpehtucu-36" value="" style="endArrow=classic;html=1;" parent="8GD9nCWIn11U9y9nbCpM-1" source="PPCV0okxLA9_Zpehtucu-30" edge="1">
          <mxGeometry width="50" height="50" relative="1" as="geometry">
            <mxPoint x="267" y="941" as="sourcePoint" />
            <mxPoint x="600" y="972" as="targetPoint" />
            <Array as="points">
              <mxPoint x="684" y="972" />
            </Array>
          </mxGeometry>
        </mxCell>
        <mxCell id="PPCV0okxLA9_Zpehtucu-37" value="Intent (order.pizza-no)" style="text;html=1;align=center;verticalAlign=middle;resizable=0;points=[];autosize=1;fillColor=#d80073;strokeColor=#A50040;fontColor=#ffffff;" parent="8GD9nCWIn11U9y9nbCpM-1" vertex="1">
          <mxGeometry x="196" y="1040" width="127" height="18" as="geometry" />
        </mxCell>
        <mxCell id="PPCV0okxLA9_Zpehtucu-38" style="edgeStyle=orthogonalEdgeStyle;rounded=0;orthogonalLoop=1;jettySize=auto;html=1;" parent="8GD9nCWIn11U9y9nbCpM-1" source="PPCV0okxLA9_Zpehtucu-39" edge="1">
          <mxGeometry relative="1" as="geometry">
            <mxPoint x="261" y="1038" as="targetPoint" />
          </mxGeometry>
        </mxCell>
        <mxCell id="PPCV0okxLA9_Zpehtucu-39" value="Add followup Intent" style="text;html=1;align=center;verticalAlign=middle;resizable=0;points=[];autosize=1;gradientColor=#d5739d;fillColor=#e6d0de;strokeColor=#996185;" parent="8GD9nCWIn11U9y9nbCpM-1" vertex="1">
          <mxGeometry x="310" y="1002.5" width="112" height="18" as="geometry" />
        </mxCell>
        <mxCell id="PPCV0okxLA9_Zpehtucu-40" value="Choose &lt;font color=&quot;#ff0000&quot;&gt;NO&lt;/font&gt;" style="text;html=1;align=center;verticalAlign=middle;resizable=0;points=[];autosize=1;gradientColor=#d5739d;fillColor=#e6d0de;strokeColor=#996185;" parent="8GD9nCWIn11U9y9nbCpM-1" vertex="1">
          <mxGeometry x="487" y="1002.5" width="73" height="18" as="geometry" />
        </mxCell>
        <mxCell id="PPCV0okxLA9_Zpehtucu-41" value="9" style="ellipse;whiteSpace=wrap;html=1;aspect=fixed;" parent="8GD9nCWIn11U9y9nbCpM-1" vertex="1">
          <mxGeometry x="569.5" y="995" width="29" height="29" as="geometry" />
        </mxCell>
        <mxCell id="PPCV0okxLA9_Zpehtucu-43" value="10" style="ellipse;whiteSpace=wrap;html=1;aspect=fixed;" parent="8GD9nCWIn11U9y9nbCpM-1" vertex="1">
          <mxGeometry x="156" y="1034.5" width="29" height="29" as="geometry" />
        </mxCell>
        <mxCell id="PPCV0okxLA9_Zpehtucu-44" style="edgeStyle=orthogonalEdgeStyle;rounded=0;orthogonalLoop=1;jettySize=auto;html=1;" parent="8GD9nCWIn11U9y9nbCpM-1" source="PPCV0okxLA9_Zpehtucu-45" target="PPCV0okxLA9_Zpehtucu-46" edge="1">
          <mxGeometry relative="1" as="geometry" />
        </mxCell>
        <mxCell id="PPCV0okxLA9_Zpehtucu-45" value="Default Training Phrases get added" style="text;html=1;align=center;verticalAlign=middle;resizable=0;points=[];autosize=1;fillColor=#d80073;strokeColor=#A50040;fontColor=#ffffff;" parent="8GD9nCWIn11U9y9nbCpM-1" vertex="1">
          <mxGeometry x="233" y="1077" width="198" height="18" as="geometry" />
        </mxCell>
        <mxCell id="PPCV0okxLA9_Zpehtucu-46" value="no please" style="text;html=1;align=center;verticalAlign=middle;resizable=0;points=[];autosize=1;fillColor=#fff2cc;strokeColor=#d6b656;" parent="8GD9nCWIn11U9y9nbCpM-1" vertex="1">
          <mxGeometry x="486" y="1077" width="62" height="18" as="geometry" />
        </mxCell>
        <mxCell id="PPCV0okxLA9_Zpehtucu-47" value="Add few Training phrase&amp;nbsp;" style="text;html=1;align=center;verticalAlign=middle;resizable=0;points=[];autosize=1;" parent="8GD9nCWIn11U9y9nbCpM-1" vertex="1">
          <mxGeometry x="457" y="1061" width="143" height="18" as="geometry" />
        </mxCell>
        <mxCell id="PPCV0okxLA9_Zpehtucu-48" value="11" style="ellipse;whiteSpace=wrap;html=1;aspect=fixed;" parent="8GD9nCWIn11U9y9nbCpM-1" vertex="1">
          <mxGeometry x="587" y="1075" width="29" height="29" as="geometry" />
        </mxCell>
        <mxCell id="PPCV0okxLA9_Zpehtucu-49" style="edgeStyle=orthogonalEdgeStyle;rounded=0;orthogonalLoop=1;jettySize=auto;html=1;" parent="8GD9nCWIn11U9y9nbCpM-1" source="PPCV0okxLA9_Zpehtucu-50" target="PPCV0okxLA9_Zpehtucu-51" edge="1">
          <mxGeometry relative="1" as="geometry" />
        </mxCell>
        <mxCell id="PPCV0okxLA9_Zpehtucu-50" value="In Response section Add new" style="text;html=1;align=center;verticalAlign=middle;resizable=0;points=[];autosize=1;fillColor=#d80073;strokeColor=#A50040;fontColor=#ffffff;" parent="8GD9nCWIn11U9y9nbCpM-1" vertex="1">
          <mxGeometry x="237" y="1110.5" width="168" height="18" as="geometry" />
        </mxCell>
        <mxCell id="PPCV0okxLA9_Zpehtucu-51" value="Thats ok we have place only pizza order" style="text;html=1;align=center;verticalAlign=middle;resizable=0;points=[];autosize=1;fillColor=#fff2cc;strokeColor=#d6b656;" parent="8GD9nCWIn11U9y9nbCpM-1" vertex="1">
          <mxGeometry x="433" y="1110.5" width="224" height="18" as="geometry" />
        </mxCell>
        <mxCell id="PPCV0okxLA9_Zpehtucu-52" value="Add default response" style="text;html=1;align=center;verticalAlign=middle;resizable=0;points=[];autosize=1;" parent="8GD9nCWIn11U9y9nbCpM-1" vertex="1">
          <mxGeometry x="446" y="1094.5" width="123" height="18" as="geometry" />
        </mxCell>
        <mxCell id="PPCV0okxLA9_Zpehtucu-53" value="12" style="ellipse;whiteSpace=wrap;html=1;aspect=fixed;" parent="8GD9nCWIn11U9y9nbCpM-1" vertex="1">
          <mxGeometry x="664" y="1104" width="29" height="29" as="geometry" />
        </mxCell>
      </root>
    </mxGraphModel>
  </diagram>
  <diagram id="HVcKErGBpYbTzxdxoDMN" name="Page-3">
    <mxGraphModel dx="1186" dy="773" grid="1" gridSize="10" guides="1" tooltips="1" connect="1" arrows="1" fold="1" page="1" pageScale="1" pageWidth="827" pageHeight="1169" math="0" shadow="0">
      <root>
        <mxCell id="Vsu7OXYKLnKImXAjPon--0" />
        <mxCell id="Vsu7OXYKLnKImXAjPon--1" parent="Vsu7OXYKLnKImXAjPon--0" />
        <mxCell id="nbWG-ihnkQhu9652zYAP-0" value="&lt;font style=&quot;font-size: 18px&quot;&gt;&lt;b&gt;order.pizza&lt;/b&gt;&lt;/font&gt;" style="rounded=1;whiteSpace=wrap;html=1;strokeWidth=2;gradientColor=#ffd966;fillColor=#fff2cc;strokeColor=#d6b656;" parent="Vsu7OXYKLnKImXAjPon--1" vertex="1">
          <mxGeometry x="60" y="160" width="120" height="60" as="geometry" />
        </mxCell>
        <mxCell id="nbWG-ihnkQhu9652zYAP-3" value="&lt;em style=&quot;box-sizing: border-box ; transition: all 0.2s ease-in-out 0s ; color: rgb(73 , 78 , 82) ; font-family: , , &amp;#34;roboto&amp;#34; , &amp;#34;segoe ui&amp;#34; , &amp;#34;helvetica neue&amp;#34; , &amp;#34;lucida grande&amp;#34; , &amp;#34;arial&amp;#34; , sans-serif ; font-size: 22px ; text-align: left ; background-color: rgb(255 , 255 , 255)&quot;&gt;can I order a cheese pizza for pickup &lt;/em&gt;&lt;em style=&quot;box-sizing: border-box ; transition: all 0.2s ease-in-out 0s ; color: rgb(73 , 78 , 82) ; font-size: 22px ; text-align: left ; background-color: rgb(255 , 217 , 102)&quot;&gt;today&lt;/em&gt;&lt;em style=&quot;box-sizing: border-box ; transition: all 0.2s ease-in-out 0s ; color: rgb(73 , 78 , 82) ; font-family: , , &amp;#34;roboto&amp;#34; , &amp;#34;segoe ui&amp;#34; , &amp;#34;helvetica neue&amp;#34; , &amp;#34;lucida grande&amp;#34; , &amp;#34;arial&amp;#34; , sans-serif ; font-size: 22px ; text-align: left ; background-color: rgb(255 , 255 , 255)&quot;&gt; at &lt;/em&gt;&lt;em style=&quot;box-sizing: border-box ; transition: all 0.2s ease-in-out 0s ; color: rgb(73 , 78 , 82) ; font-size: 22px ; text-align: left ; background-color: rgb(255 , 217 , 102)&quot;&gt;noon&lt;/em&gt;&lt;em style=&quot;box-sizing: border-box ; transition: all 0.2s ease-in-out 0s ; color: rgb(73 , 78 , 82) ; font-family: , , &amp;#34;roboto&amp;#34; , &amp;#34;segoe ui&amp;#34; , &amp;#34;helvetica neue&amp;#34; , &amp;#34;lucida grande&amp;#34; , &amp;#34;arial&amp;#34; , sans-serif ; font-size: 22px ; text-align: left ; background-color: rgb(255 , 255 , 255)&quot;&gt; ?&lt;/em&gt;" style="rounded=0;whiteSpace=wrap;html=1;strokeWidth=2;" parent="Vsu7OXYKLnKImXAjPon--1" vertex="1">
          <mxGeometry x="320" y="160" width="310" height="60" as="geometry" />
        </mxCell>
        <mxCell id="nbWG-ihnkQhu9652zYAP-5" value="&lt;font style=&quot;font-size: 14px&quot;&gt;Training Phrases&lt;/font&gt;" style="text;html=1;align=center;verticalAlign=middle;resizable=0;points=[];autosize=1;gradientColor=#ffa500;fillColor=#ffcd28;strokeColor=#d79b00;" parent="Vsu7OXYKLnKImXAjPon--1" vertex="1">
          <mxGeometry x="305" y="130" width="120" height="20" as="geometry" />
        </mxCell>
        <mxCell id="nbWG-ihnkQhu9652zYAP-7" value="&lt;strong style=&quot;box-sizing: border-box ; transition: all 0.2s ease-in-out 0s ; color: rgb(73 , 78 , 82) ; font-family: , , &amp;#34;roboto&amp;#34; , &amp;#34;segoe ui&amp;#34; , &amp;#34;helvetica neue&amp;#34; , &amp;#34;lucida grande&amp;#34; , &amp;#34;arial&amp;#34; , sans-serif ; font-size: 22px ; text-align: left ; background-color: rgb(255 , 255 , 255)&quot;&gt;date&lt;/strong&gt;&lt;span style=&quot;color: rgb(73 , 78 , 82) ; font-family: , , &amp;#34;roboto&amp;#34; , &amp;#34;segoe ui&amp;#34; , &amp;#34;helvetica neue&amp;#34; , &amp;#34;lucida grande&amp;#34; , &amp;#34;arial&amp;#34; , sans-serif ; font-size: 22px ; text-align: left ; background-color: rgb(255 , 255 , 255)&quot;&gt;&amp;nbsp;and&amp;nbsp;&lt;/span&gt;&lt;strong style=&quot;box-sizing: border-box ; transition: all 0.2s ease-in-out 0s ; color: rgb(73 , 78 , 82) ; font-family: , , &amp;#34;roboto&amp;#34; , &amp;#34;segoe ui&amp;#34; , &amp;#34;helvetica neue&amp;#34; , &amp;#34;lucida grande&amp;#34; , &amp;#34;arial&amp;#34; , sans-serif ; font-size: 22px ; text-align: left ; background-color: rgb(255 , 255 , 255)&quot;&gt;time (Automatic)&lt;/strong&gt;" style="rounded=1;whiteSpace=wrap;html=1;strokeWidth=2;" parent="Vsu7OXYKLnKImXAjPon--1" vertex="1">
          <mxGeometry x="400" y="260" width="350" height="60" as="geometry" />
        </mxCell>
        <mxCell id="nbWG-ihnkQhu9652zYAP-8" value="" style="endArrow=classic;html=1;" parent="Vsu7OXYKLnKImXAjPon--1" source="nbWG-ihnkQhu9652zYAP-3" target="nbWG-ihnkQhu9652zYAP-7" edge="1">
          <mxGeometry width="50" height="50" relative="1" as="geometry">
            <mxPoint x="390" y="130" as="sourcePoint" />
            <mxPoint x="440" y="80" as="targetPoint" />
          </mxGeometry>
        </mxCell>
      </root>
    </mxGraphModel>
  </diagram>
  <diagram id="wcFHKfVWh63gXPckvNC7" name="UITesting">
    <mxGraphModel dx="1186" dy="773" grid="0" gridSize="10" guides="1" tooltips="1" connect="1" arrows="1" fold="1" page="1" pageScale="1" pageWidth="827" pageHeight="1169" math="0" shadow="0">
      <root>
        <mxCell id="t79F0u3WjJuviTd7DjWm-0" />
        <mxCell id="t79F0u3WjJuviTd7DjWm-1" parent="t79F0u3WjJuviTd7DjWm-0" />
        <mxCell id="t79F0u3WjJuviTd7DjWm-2" value="" style="rounded=1;whiteSpace=wrap;html=1;fillColor=#fff2cc;strokeColor=#d6b656;" parent="t79F0u3WjJuviTd7DjWm-1" vertex="1">
          <mxGeometry x="125" y="253" width="91" height="29" as="geometry" />
        </mxCell>
        <mxCell id="t79F0u3WjJuviTd7DjWm-3" value="&lt;div style=&quot;text-align: left&quot;&gt;&lt;b&gt;Best Practice&lt;/b&gt;&lt;/div&gt;&lt;div style=&quot;text-align: left&quot;&gt;&lt;span&gt;1 Do not rely on it&lt;/span&gt;&lt;/div&gt;&lt;div style=&quot;text-align: left&quot;&gt;&lt;span&gt;2 Never pause threads or use timers unless specifically told&lt;/span&gt;&lt;/div&gt;&lt;div style=&quot;text-align: left&quot;&gt;&lt;span&gt;3 Name test wiselt. testLoginBtn_WhenTapped_ShouldAnimate()&lt;/span&gt;&lt;/div&gt;&lt;div style=&quot;text-align: left&quot;&gt;&lt;span&gt;4 Make test simpler instead of comments&lt;/span&gt;&lt;/div&gt;&lt;div style=&quot;text-align: left&quot;&gt;&lt;span&gt;5 All test pass&amp;nbsp;&lt;/span&gt;&lt;/div&gt;&lt;div style=&quot;text-align: left&quot;&gt;&lt;span&gt;6 Every test to be independant&lt;/span&gt;&lt;/div&gt;&lt;div style=&quot;text-align: left&quot;&gt;&lt;div&gt;7 Setup reporting in case of failure&lt;/div&gt;&lt;div&gt;8 Screenshot why it failed&lt;/div&gt;&lt;/div&gt;&lt;div style=&quot;text-align: left&quot;&gt;&lt;span&gt;&lt;br&gt;&lt;/span&gt;&lt;/div&gt;&lt;div style=&quot;text-align: left&quot;&gt;&lt;span&gt;&lt;br&gt;&lt;/span&gt;&lt;/div&gt;" style="text;html=1;align=center;verticalAlign=middle;resizable=0;points=[];autosize=1;" parent="t79F0u3WjJuviTd7DjWm-1" vertex="1">
          <mxGeometry x="23" y="21" width="355" height="158" as="geometry" />
        </mxCell>
      </root>
    </mxGraphModel>
  </diagram>
  <diagram id="h3_b7gffdQwMrxZXtyJx" name="HealthKit">
    <mxGraphModel dx="1186" dy="724" grid="0" gridSize="10" guides="1" tooltips="1" connect="1" arrows="1" fold="1" page="1" pageScale="1" pageWidth="827" pageHeight="1169" math="0" shadow="0">
      <root>
        <mxCell id="CT6vgT8u28KGC8Ecxago-0" />
        <mxCell id="CT6vgT8u28KGC8Ecxago-1" parent="CT6vgT8u28KGC8Ecxago-0" />
        <mxCell id="CT6vgT8u28KGC8Ecxago-29" style="edgeStyle=orthogonalEdgeStyle;rounded=0;orthogonalLoop=1;jettySize=auto;html=1;entryX=0;entryY=0.5;entryDx=0;entryDy=0;" parent="CT6vgT8u28KGC8Ecxago-1" source="CT6vgT8u28KGC8Ecxago-3" target="CT6vgT8u28KGC8Ecxago-6" edge="1">
          <mxGeometry relative="1" as="geometry" />
        </mxCell>
        <mxCell id="CT6vgT8u28KGC8Ecxago-3" value="Launch App" style="rounded=1;whiteSpace=wrap;html=1;" parent="CT6vgT8u28KGC8Ecxago-1" vertex="1">
          <mxGeometry x="86" y="77" width="120" height="60" as="geometry" />
        </mxCell>
        <mxCell id="CT6vgT8u28KGC8Ecxago-9" style="edgeStyle=orthogonalEdgeStyle;rounded=0;orthogonalLoop=1;jettySize=auto;html=1;entryX=0;entryY=0.5;entryDx=0;entryDy=0;" parent="CT6vgT8u28KGC8Ecxago-1" source="CT6vgT8u28KGC8Ecxago-5" target="CT6vgT8u28KGC8Ecxago-8" edge="1">
          <mxGeometry relative="1" as="geometry" />
        </mxCell>
        <mxCell id="CT6vgT8u28KGC8Ecxago-19" style="edgeStyle=orthogonalEdgeStyle;rounded=0;orthogonalLoop=1;jettySize=auto;html=1;exitX=0.5;exitY=1;exitDx=0;exitDy=0;entryX=0.5;entryY=0;entryDx=0;entryDy=0;" parent="CT6vgT8u28KGC8Ecxago-1" source="CT6vgT8u28KGC8Ecxago-5" target="CT6vgT8u28KGC8Ecxago-18" edge="1">
          <mxGeometry relative="1" as="geometry" />
        </mxCell>
        <mxCell id="CT6vgT8u28KGC8Ecxago-5" value="Yes" style="rhombus;whiteSpace=wrap;html=1;" parent="CT6vgT8u28KGC8Ecxago-1" vertex="1">
          <mxGeometry x="278" y="186" width="80" height="54" as="geometry" />
        </mxCell>
        <mxCell id="CT6vgT8u28KGC8Ecxago-7" style="edgeStyle=orthogonalEdgeStyle;rounded=0;orthogonalLoop=1;jettySize=auto;html=1;exitX=0.5;exitY=1;exitDx=0;exitDy=0;entryX=0.5;entryY=0;entryDx=0;entryDy=0;" parent="CT6vgT8u28KGC8Ecxago-1" source="CT6vgT8u28KGC8Ecxago-6" target="CT6vgT8u28KGC8Ecxago-5" edge="1">
          <mxGeometry relative="1" as="geometry" />
        </mxCell>
        <mxCell id="CT6vgT8u28KGC8Ecxago-6" value="Fetch Vitals Configured to HealthKit" style="rounded=1;whiteSpace=wrap;html=1;" parent="CT6vgT8u28KGC8Ecxago-1" vertex="1">
          <mxGeometry x="258" y="77" width="120" height="60" as="geometry" />
        </mxCell>
        <mxCell id="CT6vgT8u28KGC8Ecxago-12" style="edgeStyle=orthogonalEdgeStyle;rounded=0;orthogonalLoop=1;jettySize=auto;html=1;entryX=0.5;entryY=0;entryDx=0;entryDy=0;" parent="CT6vgT8u28KGC8Ecxago-1" source="CT6vgT8u28KGC8Ecxago-8" edge="1">
          <mxGeometry relative="1" as="geometry">
            <mxPoint x="528" y="283" as="targetPoint" />
          </mxGeometry>
        </mxCell>
        <mxCell id="CT6vgT8u28KGC8Ecxago-28" style="edgeStyle=orthogonalEdgeStyle;rounded=0;orthogonalLoop=1;jettySize=auto;html=1;exitX=0.5;exitY=0;exitDx=0;exitDy=0;" parent="CT6vgT8u28KGC8Ecxago-1" source="CT6vgT8u28KGC8Ecxago-8" edge="1">
          <mxGeometry relative="1" as="geometry">
            <mxPoint x="528" y="163" as="targetPoint" />
          </mxGeometry>
        </mxCell>
        <mxCell id="CT6vgT8u28KGC8Ecxago-8" value="API to register vita Via HealthKit&lt;br&gt;requestAuthorization()" style="rounded=1;whiteSpace=wrap;html=1;" parent="CT6vgT8u28KGC8Ecxago-1" vertex="1">
          <mxGeometry x="468" y="183" width="120" height="60" as="geometry" />
        </mxCell>
        <mxCell id="CT6vgT8u28KGC8Ecxago-15" style="edgeStyle=orthogonalEdgeStyle;rounded=0;orthogonalLoop=1;jettySize=auto;html=1;exitX=0.5;exitY=1;exitDx=0;exitDy=0;entryX=0.5;entryY=0;entryDx=0;entryDy=0;" parent="CT6vgT8u28KGC8Ecxago-1" target="CT6vgT8u28KGC8Ecxago-14" edge="1">
          <mxGeometry relative="1" as="geometry">
            <mxPoint x="528" y="343" as="sourcePoint" />
          </mxGeometry>
        </mxCell>
        <mxCell id="CT6vgT8u28KGC8Ecxago-13" value="Yes" style="text;html=1;align=center;verticalAlign=middle;resizable=0;points=[];autosize=1;" parent="CT6vgT8u28KGC8Ecxago-1" vertex="1">
          <mxGeometry x="398.5" y="190" width="30" height="18" as="geometry" />
        </mxCell>
        <mxCell id="CT6vgT8u28KGC8Ecxago-23" style="edgeStyle=orthogonalEdgeStyle;rounded=0;orthogonalLoop=1;jettySize=auto;html=1;entryX=1;entryY=0.5;entryDx=0;entryDy=0;" parent="CT6vgT8u28KGC8Ecxago-1" source="CT6vgT8u28KGC8Ecxago-14" target="CT6vgT8u28KGC8Ecxago-22" edge="1">
          <mxGeometry relative="1" as="geometry" />
        </mxCell>
        <mxCell id="CT6vgT8u28KGC8Ecxago-14" value="Sync Vitals from HK" style="rounded=1;whiteSpace=wrap;html=1;" parent="CT6vgT8u28KGC8Ecxago-1" vertex="1">
          <mxGeometry x="468" y="380" width="120" height="60" as="geometry" />
        </mxCell>
        <mxCell id="CT6vgT8u28KGC8Ecxago-16" value="Yes" style="text;html=1;align=center;verticalAlign=middle;resizable=0;points=[];autosize=1;" parent="CT6vgT8u28KGC8Ecxago-1" vertex="1">
          <mxGeometry x="543" y="350" width="30" height="18" as="geometry" />
        </mxCell>
        <mxCell id="CT6vgT8u28KGC8Ecxago-20" style="edgeStyle=orthogonalEdgeStyle;rounded=0;orthogonalLoop=1;jettySize=auto;html=1;" parent="CT6vgT8u28KGC8Ecxago-1" source="CT6vgT8u28KGC8Ecxago-17" target="CT6vgT8u28KGC8Ecxago-18" edge="1">
          <mxGeometry relative="1" as="geometry" />
        </mxCell>
        <mxCell id="CT6vgT8u28KGC8Ecxago-17" value="&lt;span&gt;Vital Consents Screen Shown&lt;/span&gt;" style="rhombus;whiteSpace=wrap;html=1;" parent="CT6vgT8u28KGC8Ecxago-1" vertex="1">
          <mxGeometry x="449" y="277" width="156" height="80" as="geometry" />
        </mxCell>
        <mxCell id="CT6vgT8u28KGC8Ecxago-18" value="Vitals Wont be fetched and synced" style="rounded=1;whiteSpace=wrap;html=1;" parent="CT6vgT8u28KGC8Ecxago-1" vertex="1">
          <mxGeometry x="258" y="287" width="120" height="60" as="geometry" />
        </mxCell>
        <mxCell id="CT6vgT8u28KGC8Ecxago-21" value="NO" style="text;html=1;align=center;verticalAlign=middle;resizable=0;points=[];autosize=1;" parent="CT6vgT8u28KGC8Ecxago-1" vertex="1">
          <mxGeometry x="403" y="299" width="28" height="18" as="geometry" />
        </mxCell>
        <mxCell id="CT6vgT8u28KGC8Ecxago-25" style="edgeStyle=orthogonalEdgeStyle;rounded=0;orthogonalLoop=1;jettySize=auto;html=1;exitX=0.5;exitY=1;exitDx=0;exitDy=0;entryX=0.5;entryY=0;entryDx=0;entryDy=0;" parent="CT6vgT8u28KGC8Ecxago-1" source="CT6vgT8u28KGC8Ecxago-22" target="CT6vgT8u28KGC8Ecxago-24" edge="1">
          <mxGeometry relative="1" as="geometry" />
        </mxCell>
        <mxCell id="CT6vgT8u28KGC8Ecxago-32" style="edgeStyle=orthogonalEdgeStyle;rounded=0;orthogonalLoop=1;jettySize=auto;html=1;" parent="CT6vgT8u28KGC8Ecxago-1" source="CT6vgT8u28KGC8Ecxago-22" edge="1">
          <mxGeometry relative="1" as="geometry">
            <mxPoint x="214" y="410" as="targetPoint" />
          </mxGeometry>
        </mxCell>
        <mxCell id="CT6vgT8u28KGC8Ecxago-22" value="Vitals Summary API" style="rounded=1;whiteSpace=wrap;html=1;" parent="CT6vgT8u28KGC8Ecxago-1" vertex="1">
          <mxGeometry x="261" y="380" width="120" height="60" as="geometry" />
        </mxCell>
        <mxCell id="CT6vgT8u28KGC8Ecxago-24" value="Delta Sync API" style="rounded=1;whiteSpace=wrap;html=1;" parent="CT6vgT8u28KGC8Ecxago-1" vertex="1">
          <mxGeometry x="261" y="465" width="120" height="60" as="geometry" />
        </mxCell>
        <mxCell id="CT6vgT8u28KGC8Ecxago-27" value="HealthKit Supports&lt;br&gt;1) Body Weight&lt;br&gt;&lt;div&gt;&lt;span&gt;2) Blood Presure&lt;/span&gt;&lt;/div&gt;&lt;div&gt;&lt;span&gt;3) Pre/Post Meal Glucose&lt;/span&gt;&lt;/div&gt;&lt;div&gt;&lt;span&gt;4) Pulse Oxymeter&lt;/span&gt;&lt;/div&gt;&lt;div&gt;&lt;span&gt;5) Stepcount&lt;/span&gt;&lt;/div&gt;" style="text;html=1;align=left;verticalAlign=middle;resizable=0;points=[];autosize=1;fillColor=#f5f5f5;strokeColor=#666666;fontColor=#333333;" parent="CT6vgT8u28KGC8Ecxago-1" vertex="1">
          <mxGeometry x="461" y="73" width="147" height="88" as="geometry" />
        </mxCell>
        <mxCell id="CT6vgT8u28KGC8Ecxago-31" value="&lt;span&gt;Display Reading on Homescreen&lt;/span&gt;" style="shape=process;whiteSpace=wrap;html=1;backgroundOutline=1;" parent="CT6vgT8u28KGC8Ecxago-1" vertex="1">
          <mxGeometry x="92" y="380" width="120" height="60" as="geometry" />
        </mxCell>
      </root>
    </mxGraphModel>
  </diagram>
  <diagram id="P4Kb3bIecuZOxqRPX80h" name="CI/CD">
    <mxGraphModel dx="1186" dy="773" grid="0" gridSize="10" guides="1" tooltips="1" connect="1" arrows="1" fold="1" page="1" pageScale="1" pageWidth="827" pageHeight="1169" math="0" shadow="0">
      <root>
        <mxCell id="AVb8IYfbYi4PxDFSKJkM-0" />
        <mxCell id="AVb8IYfbYi4PxDFSKJkM-1" parent="AVb8IYfbYi4PxDFSKJkM-0" />
        <mxCell id="nva_uSXv4JlaCD3JSS9l-20" style="edgeStyle=orthogonalEdgeStyle;rounded=0;orthogonalLoop=1;jettySize=auto;html=1;entryX=0;entryY=0.5;entryDx=0;entryDy=0;" parent="AVb8IYfbYi4PxDFSKJkM-1" source="nva_uSXv4JlaCD3JSS9l-16" target="nva_uSXv4JlaCD3JSS9l-2" edge="1">
          <mxGeometry relative="1" as="geometry" />
        </mxCell>
        <mxCell id="nva_uSXv4JlaCD3JSS9l-0" value="Code Checked in Master" style="rounded=0;whiteSpace=wrap;html=1;" parent="AVb8IYfbYi4PxDFSKJkM-1" vertex="1">
          <mxGeometry x="52" y="133" width="84" height="60" as="geometry" />
        </mxCell>
        <mxCell id="nva_uSXv4JlaCD3JSS9l-21" style="edgeStyle=orthogonalEdgeStyle;rounded=0;orthogonalLoop=1;jettySize=auto;html=1;exitX=0.5;exitY=1;exitDx=0;exitDy=0;entryX=0.5;entryY=0;entryDx=0;entryDy=0;" parent="AVb8IYfbYi4PxDFSKJkM-1" source="nva_uSXv4JlaCD3JSS9l-2" target="nva_uSXv4JlaCD3JSS9l-6" edge="1">
          <mxGeometry relative="1" as="geometry" />
        </mxCell>
        <mxCell id="nva_uSXv4JlaCD3JSS9l-2" value="Git Clone Master" style="rounded=1;whiteSpace=wrap;html=1;" parent="AVb8IYfbYi4PxDFSKJkM-1" vertex="1">
          <mxGeometry x="281.5" y="141" width="120" height="60" as="geometry" />
        </mxCell>
        <mxCell id="g9-Y4y1IVOJ0izTEN3iP-27" value="" style="edgeStyle=orthogonalEdgeStyle;rounded=0;orthogonalLoop=1;jettySize=auto;html=1;" parent="AVb8IYfbYi4PxDFSKJkM-1" source="nva_uSXv4JlaCD3JSS9l-4" target="g9-Y4y1IVOJ0izTEN3iP-26" edge="1">
          <mxGeometry relative="1" as="geometry" />
        </mxCell>
        <mxCell id="nva_uSXv4JlaCD3JSS9l-4" value="iOS and Android Build" style="text;html=1;align=center;verticalAlign=middle;resizable=0;points=[];autosize=1;fillColor=#fff2cc;strokeColor=#d6b656;" parent="AVb8IYfbYi4PxDFSKJkM-1" vertex="1">
          <mxGeometry x="278" y="109" width="127" height="18" as="geometry" />
        </mxCell>
        <mxCell id="g9-Y4y1IVOJ0izTEN3iP-26" value="iOS and Android Build" style="text;html=1;align=center;verticalAlign=middle;resizable=0;points=[];autosize=1;fillColor=#fff2cc;strokeColor=#d6b656;" parent="AVb8IYfbYi4PxDFSKJkM-1" vertex="1">
          <mxGeometry x="278" y="11" width="127" height="18" as="geometry" />
        </mxCell>
        <mxCell id="nva_uSXv4JlaCD3JSS9l-22" style="edgeStyle=orthogonalEdgeStyle;rounded=0;orthogonalLoop=1;jettySize=auto;html=1;exitX=0.083;exitY=0.763;exitDx=0;exitDy=0;entryX=0.5;entryY=0;entryDx=0;entryDy=0;exitPerimeter=0;" parent="AVb8IYfbYi4PxDFSKJkM-1" source="g9-Y4y1IVOJ0izTEN3iP-25" target="nva_uSXv4JlaCD3JSS9l-7" edge="1">
          <mxGeometry relative="1" as="geometry">
            <Array as="points">
              <mxPoint x="447" y="319" />
              <mxPoint x="447" y="291" />
              <mxPoint x="344" y="291" />
            </Array>
          </mxGeometry>
        </mxCell>
        <mxCell id="nva_uSXv4JlaCD3JSS9l-6" value="APK Generation Command" style="rounded=1;whiteSpace=wrap;html=1;" parent="AVb8IYfbYi4PxDFSKJkM-1" vertex="1">
          <mxGeometry x="281.5" y="221" width="120" height="60" as="geometry" />
        </mxCell>
        <mxCell id="nva_uSXv4JlaCD3JSS9l-23" style="edgeStyle=orthogonalEdgeStyle;rounded=0;orthogonalLoop=1;jettySize=auto;html=1;exitX=0.5;exitY=1;exitDx=0;exitDy=0;entryX=0.5;entryY=0;entryDx=0;entryDy=0;" parent="AVb8IYfbYi4PxDFSKJkM-1" source="nva_uSXv4JlaCD3JSS9l-7" target="nva_uSXv4JlaCD3JSS9l-9" edge="1">
          <mxGeometry relative="1" as="geometry" />
        </mxCell>
        <mxCell id="nva_uSXv4JlaCD3JSS9l-7" value="Unit Test Executed" style="rounded=1;whiteSpace=wrap;html=1;" parent="AVb8IYfbYi4PxDFSKJkM-1" vertex="1">
          <mxGeometry x="284" y="301" width="120" height="60" as="geometry" />
        </mxCell>
        <mxCell id="nva_uSXv4JlaCD3JSS9l-24" style="edgeStyle=orthogonalEdgeStyle;rounded=0;orthogonalLoop=1;jettySize=auto;html=1;entryX=0;entryY=0.5;entryDx=0;entryDy=0;fillColor=#f8cecc;strokeColor=#b85450;" parent="AVb8IYfbYi4PxDFSKJkM-1" source="nva_uSXv4JlaCD3JSS9l-9" target="nva_uSXv4JlaCD3JSS9l-11" edge="1">
          <mxGeometry relative="1" as="geometry" />
        </mxCell>
        <mxCell id="nva_uSXv4JlaCD3JSS9l-9" value="Connect Sucelab and Push API + UITest&amp;nbsp;" style="rounded=1;whiteSpace=wrap;html=1;fillColor=#f8cecc;strokeColor=#b85450;" parent="AVb8IYfbYi4PxDFSKJkM-1" vertex="1">
          <mxGeometry x="284" y="394" width="120" height="60" as="geometry" />
        </mxCell>
        <mxCell id="nva_uSXv4JlaCD3JSS9l-10" value="Sauce Lab" style="text;html=1;align=center;verticalAlign=middle;resizable=0;points=[];autosize=1;fillColor=#f8cecc;strokeColor=#b85450;" parent="AVb8IYfbYi4PxDFSKJkM-1" vertex="1">
          <mxGeometry x="502" y="398" width="67" height="18" as="geometry" />
        </mxCell>
        <mxCell id="nva_uSXv4JlaCD3JSS9l-25" style="edgeStyle=orthogonalEdgeStyle;rounded=0;orthogonalLoop=1;jettySize=auto;html=1;exitX=0.5;exitY=1;exitDx=0;exitDy=0;entryX=0.5;entryY=0;entryDx=0;entryDy=0;fillColor=#f8cecc;strokeColor=#b85450;" parent="AVb8IYfbYi4PxDFSKJkM-1" source="nva_uSXv4JlaCD3JSS9l-11" target="nva_uSXv4JlaCD3JSS9l-13" edge="1">
          <mxGeometry relative="1" as="geometry" />
        </mxCell>
        <mxCell id="nva_uSXv4JlaCD3JSS9l-11" value="Installs the APK + UI Test" style="rounded=1;whiteSpace=wrap;html=1;fillColor=#f8cecc;strokeColor=#b85450;" parent="AVb8IYfbYi4PxDFSKJkM-1" vertex="1">
          <mxGeometry x="495" y="429" width="120" height="60" as="geometry" />
        </mxCell>
        <mxCell id="nva_uSXv4JlaCD3JSS9l-26" style="edgeStyle=orthogonalEdgeStyle;rounded=0;orthogonalLoop=1;jettySize=auto;html=1;exitX=0.5;exitY=1;exitDx=0;exitDy=0;entryX=0.5;entryY=0;entryDx=0;entryDy=0;fillColor=#f8cecc;strokeColor=#b85450;" parent="AVb8IYfbYi4PxDFSKJkM-1" source="nva_uSXv4JlaCD3JSS9l-13" target="nva_uSXv4JlaCD3JSS9l-14" edge="1">
          <mxGeometry relative="1" as="geometry" />
        </mxCell>
        <mxCell id="nva_uSXv4JlaCD3JSS9l-13" value="Performs UI Test" style="rounded=1;whiteSpace=wrap;html=1;fillColor=#f8cecc;strokeColor=#b85450;" parent="AVb8IYfbYi4PxDFSKJkM-1" vertex="1">
          <mxGeometry x="495" y="507" width="120" height="60" as="geometry" />
        </mxCell>
        <mxCell id="nva_uSXv4JlaCD3JSS9l-27" style="edgeStyle=orthogonalEdgeStyle;rounded=0;orthogonalLoop=1;jettySize=auto;html=1;fillColor=#f8cecc;strokeColor=#b85450;" parent="AVb8IYfbYi4PxDFSKJkM-1" source="nva_uSXv4JlaCD3JSS9l-14" edge="1">
          <mxGeometry relative="1" as="geometry">
            <mxPoint x="409" y="615" as="targetPoint" />
          </mxGeometry>
        </mxCell>
        <mxCell id="nva_uSXv4JlaCD3JSS9l-14" value="Test Report Published as Log" style="rounded=1;whiteSpace=wrap;html=1;fillColor=#f8cecc;strokeColor=#b85450;" parent="AVb8IYfbYi4PxDFSKJkM-1" vertex="1">
          <mxGeometry x="495" y="585" width="120" height="60" as="geometry" />
        </mxCell>
        <mxCell id="nva_uSXv4JlaCD3JSS9l-15" value="System" style="text;html=1;align=center;verticalAlign=middle;resizable=0;points=[];autosize=1;fillColor=#f8cecc;strokeColor=#b85450;" parent="AVb8IYfbYi4PxDFSKJkM-1" vertex="1">
          <mxGeometry x="54" y="109" width="50" height="18" as="geometry" />
        </mxCell>
        <mxCell id="nva_uSXv4JlaCD3JSS9l-28" style="edgeStyle=orthogonalEdgeStyle;rounded=0;orthogonalLoop=1;jettySize=auto;html=1;exitX=0.5;exitY=1;exitDx=0;exitDy=0;entryX=0.442;entryY=0.017;entryDx=0;entryDy=0;entryPerimeter=0;" parent="AVb8IYfbYi4PxDFSKJkM-1" source="nva_uSXv4JlaCD3JSS9l-18" target="nva_uSXv4JlaCD3JSS9l-19" edge="1">
          <mxGeometry relative="1" as="geometry" />
        </mxCell>
        <mxCell id="nva_uSXv4JlaCD3JSS9l-18" value="Log Received From SouceLab" style="rounded=1;whiteSpace=wrap;html=1;fillColor=#f8cecc;strokeColor=#b85450;" parent="AVb8IYfbYi4PxDFSKJkM-1" vertex="1">
          <mxGeometry x="288" y="587" width="120" height="60" as="geometry" />
        </mxCell>
        <mxCell id="nva_uSXv4JlaCD3JSS9l-30" style="edgeStyle=orthogonalEdgeStyle;rounded=0;orthogonalLoop=1;jettySize=auto;html=1;entryX=0.07;entryY=0.4;entryDx=0;entryDy=0;entryPerimeter=0;" parent="AVb8IYfbYi4PxDFSKJkM-1" source="nva_uSXv4JlaCD3JSS9l-19" target="nva_uSXv4JlaCD3JSS9l-29" edge="1">
          <mxGeometry relative="1" as="geometry" />
        </mxCell>
        <mxCell id="nva_uSXv4JlaCD3JSS9l-19" value="API called To Update the Test Report to GitLab" style="rounded=1;whiteSpace=wrap;html=1;" parent="AVb8IYfbYi4PxDFSKJkM-1" vertex="1">
          <mxGeometry x="292" y="677" width="116" height="60" as="geometry" />
        </mxCell>
        <mxCell id="nva_uSXv4JlaCD3JSS9l-29" value="GitLab" style="ellipse;shape=cloud;whiteSpace=wrap;html=1;" parent="AVb8IYfbYi4PxDFSKJkM-1" vertex="1">
          <mxGeometry x="138.5" y="667" width="120" height="80" as="geometry" />
        </mxCell>
        <mxCell id="nva_uSXv4JlaCD3JSS9l-31" value="Actor" style="shape=umlActor;verticalLabelPosition=bottom;labelBackgroundColor=#ffffff;verticalAlign=top;html=1;outlineConnect=0;" parent="AVb8IYfbYi4PxDFSKJkM-1" vertex="1">
          <mxGeometry x="20" y="133" width="30" height="60" as="geometry" />
        </mxCell>
        <mxCell id="nva_uSXv4JlaCD3JSS9l-16" value="GitLab" style="text;html=1;align=center;verticalAlign=middle;resizable=0;points=[];autosize=1;fillColor=#f8cecc;strokeColor=#b85450;" parent="AVb8IYfbYi4PxDFSKJkM-1" vertex="1">
          <mxGeometry x="176" y="152" width="45" height="18" as="geometry" />
        </mxCell>
        <mxCell id="nva_uSXv4JlaCD3JSS9l-32" style="edgeStyle=orthogonalEdgeStyle;rounded=0;orthogonalLoop=1;jettySize=auto;html=1;entryX=0;entryY=0.5;entryDx=0;entryDy=0;" parent="AVb8IYfbYi4PxDFSKJkM-1" source="nva_uSXv4JlaCD3JSS9l-0" target="nva_uSXv4JlaCD3JSS9l-16" edge="1">
          <mxGeometry relative="1" as="geometry">
            <mxPoint x="136" y="163" as="sourcePoint" />
            <mxPoint x="281.5" y="171" as="targetPoint" />
          </mxGeometry>
        </mxCell>
        <mxCell id="g9-Y4y1IVOJ0izTEN3iP-0" style="edgeStyle=orthogonalEdgeStyle;rounded=0;orthogonalLoop=1;jettySize=auto;html=1;entryX=0;entryY=0.5;entryDx=0;entryDy=0;" parent="AVb8IYfbYi4PxDFSKJkM-1" source="g9-Y4y1IVOJ0izTEN3iP-1" target="g9-Y4y1IVOJ0izTEN3iP-4" edge="1">
          <mxGeometry relative="1" as="geometry" />
        </mxCell>
        <mxCell id="g9-Y4y1IVOJ0izTEN3iP-1" value="On Mac Build IPA&lt;br&gt;Publish it to SauceLab" style="rounded=1;whiteSpace=wrap;html=1;" parent="AVb8IYfbYi4PxDFSKJkM-1" vertex="1">
          <mxGeometry x="293.5" y="814" width="120" height="60" as="geometry" />
        </mxCell>
        <mxCell id="g9-Y4y1IVOJ0izTEN3iP-2" value="Sauce Lab" style="text;html=1;align=center;verticalAlign=middle;resizable=0;points=[];autosize=1;fillColor=#ffe6cc;strokeColor=#d79b00;" parent="AVb8IYfbYi4PxDFSKJkM-1" vertex="1">
          <mxGeometry x="511.5" y="818" width="67" height="18" as="geometry" />
        </mxCell>
        <mxCell id="g9-Y4y1IVOJ0izTEN3iP-3" style="edgeStyle=orthogonalEdgeStyle;rounded=0;orthogonalLoop=1;jettySize=auto;html=1;exitX=0.5;exitY=1;exitDx=0;exitDy=0;entryX=0.5;entryY=0;entryDx=0;entryDy=0;" parent="AVb8IYfbYi4PxDFSKJkM-1" source="g9-Y4y1IVOJ0izTEN3iP-4" target="g9-Y4y1IVOJ0izTEN3iP-6" edge="1">
          <mxGeometry relative="1" as="geometry" />
        </mxCell>
        <mxCell id="g9-Y4y1IVOJ0izTEN3iP-4" value="Installs the APK + UI Test" style="rounded=1;whiteSpace=wrap;html=1;" parent="AVb8IYfbYi4PxDFSKJkM-1" vertex="1">
          <mxGeometry x="504.5" y="849" width="120" height="60" as="geometry" />
        </mxCell>
        <mxCell id="g9-Y4y1IVOJ0izTEN3iP-5" style="edgeStyle=orthogonalEdgeStyle;rounded=0;orthogonalLoop=1;jettySize=auto;html=1;exitX=0.5;exitY=1;exitDx=0;exitDy=0;entryX=0.5;entryY=0;entryDx=0;entryDy=0;" parent="AVb8IYfbYi4PxDFSKJkM-1" source="g9-Y4y1IVOJ0izTEN3iP-6" target="g9-Y4y1IVOJ0izTEN3iP-8" edge="1">
          <mxGeometry relative="1" as="geometry" />
        </mxCell>
        <mxCell id="g9-Y4y1IVOJ0izTEN3iP-6" value="Performs UI/UNIT Test" style="rounded=1;whiteSpace=wrap;html=1;" parent="AVb8IYfbYi4PxDFSKJkM-1" vertex="1">
          <mxGeometry x="504.5" y="927" width="120" height="60" as="geometry" />
        </mxCell>
        <mxCell id="g9-Y4y1IVOJ0izTEN3iP-7" style="edgeStyle=orthogonalEdgeStyle;rounded=0;orthogonalLoop=1;jettySize=auto;html=1;" parent="AVb8IYfbYi4PxDFSKJkM-1" source="g9-Y4y1IVOJ0izTEN3iP-8" edge="1">
          <mxGeometry relative="1" as="geometry">
            <mxPoint x="418.5" y="1035" as="targetPoint" />
          </mxGeometry>
        </mxCell>
        <mxCell id="g9-Y4y1IVOJ0izTEN3iP-8" value="Test Report Published as Log" style="rounded=1;whiteSpace=wrap;html=1;" parent="AVb8IYfbYi4PxDFSKJkM-1" vertex="1">
          <mxGeometry x="504.5" y="1005" width="120" height="60" as="geometry" />
        </mxCell>
        <mxCell id="g9-Y4y1IVOJ0izTEN3iP-9" style="edgeStyle=orthogonalEdgeStyle;rounded=0;orthogonalLoop=1;jettySize=auto;html=1;exitX=0.5;exitY=1;exitDx=0;exitDy=0;entryX=0.442;entryY=0.017;entryDx=0;entryDy=0;entryPerimeter=0;" parent="AVb8IYfbYi4PxDFSKJkM-1" source="g9-Y4y1IVOJ0izTEN3iP-10" target="g9-Y4y1IVOJ0izTEN3iP-12" edge="1">
          <mxGeometry relative="1" as="geometry" />
        </mxCell>
        <mxCell id="g9-Y4y1IVOJ0izTEN3iP-10" value="Log Received From SouceLab" style="rounded=1;whiteSpace=wrap;html=1;" parent="AVb8IYfbYi4PxDFSKJkM-1" vertex="1">
          <mxGeometry x="297.5" y="1007" width="120" height="60" as="geometry" />
        </mxCell>
        <mxCell id="g9-Y4y1IVOJ0izTEN3iP-11" style="edgeStyle=orthogonalEdgeStyle;rounded=0;orthogonalLoop=1;jettySize=auto;html=1;entryX=0.07;entryY=0.4;entryDx=0;entryDy=0;entryPerimeter=0;" parent="AVb8IYfbYi4PxDFSKJkM-1" source="g9-Y4y1IVOJ0izTEN3iP-12" target="g9-Y4y1IVOJ0izTEN3iP-13" edge="1">
          <mxGeometry relative="1" as="geometry" />
        </mxCell>
        <mxCell id="g9-Y4y1IVOJ0izTEN3iP-12" value="API called To Update the Test Report to GitLab" style="rounded=1;whiteSpace=wrap;html=1;" parent="AVb8IYfbYi4PxDFSKJkM-1" vertex="1">
          <mxGeometry x="301.5" y="1097" width="116" height="60" as="geometry" />
        </mxCell>
        <mxCell id="g9-Y4y1IVOJ0izTEN3iP-13" value="GitLab" style="ellipse;shape=cloud;whiteSpace=wrap;html=1;" parent="AVb8IYfbYi4PxDFSKJkM-1" vertex="1">
          <mxGeometry x="148" y="1087" width="120" height="80" as="geometry" />
        </mxCell>
        <mxCell id="g9-Y4y1IVOJ0izTEN3iP-14" style="edgeStyle=orthogonalEdgeStyle;rounded=0;orthogonalLoop=1;jettySize=auto;html=1;entryX=0;entryY=0.5;entryDx=0;entryDy=0;" parent="AVb8IYfbYi4PxDFSKJkM-1" source="g9-Y4y1IVOJ0izTEN3iP-17" edge="1">
          <mxGeometry relative="1" as="geometry">
            <mxPoint x="293" y="842" as="targetPoint" />
          </mxGeometry>
        </mxCell>
        <mxCell id="g9-Y4y1IVOJ0izTEN3iP-15" value="Code Checked in Master" style="rounded=0;whiteSpace=wrap;html=1;" parent="AVb8IYfbYi4PxDFSKJkM-1" vertex="1">
          <mxGeometry x="55" y="814" width="84" height="60" as="geometry" />
        </mxCell>
        <mxCell id="g9-Y4y1IVOJ0izTEN3iP-16" value="Actor" style="shape=umlActor;verticalLabelPosition=bottom;labelBackgroundColor=#ffffff;verticalAlign=top;html=1;outlineConnect=0;" parent="AVb8IYfbYi4PxDFSKJkM-1" vertex="1">
          <mxGeometry x="23" y="814" width="30" height="60" as="geometry" />
        </mxCell>
        <mxCell id="g9-Y4y1IVOJ0izTEN3iP-17" value="GitLab" style="text;html=1;align=center;verticalAlign=middle;resizable=0;points=[];autosize=1;fillColor=#f8cecc;strokeColor=#b85450;" parent="AVb8IYfbYi4PxDFSKJkM-1" vertex="1">
          <mxGeometry x="179" y="833" width="45" height="18" as="geometry" />
        </mxCell>
        <mxCell id="g9-Y4y1IVOJ0izTEN3iP-18" style="edgeStyle=orthogonalEdgeStyle;rounded=0;orthogonalLoop=1;jettySize=auto;html=1;entryX=0;entryY=0.5;entryDx=0;entryDy=0;" parent="AVb8IYfbYi4PxDFSKJkM-1" source="g9-Y4y1IVOJ0izTEN3iP-15" target="g9-Y4y1IVOJ0izTEN3iP-17" edge="1">
          <mxGeometry relative="1" as="geometry">
            <mxPoint x="139" y="844" as="sourcePoint" />
            <mxPoint x="284.5" y="852" as="targetPoint" />
          </mxGeometry>
        </mxCell>
        <mxCell id="g9-Y4y1IVOJ0izTEN3iP-19" value="" style="shape=link;html=1;" parent="AVb8IYfbYi4PxDFSKJkM-1" edge="1">
          <mxGeometry width="50" height="50" relative="1" as="geometry">
            <mxPoint x="23" y="761" as="sourcePoint" />
            <mxPoint x="813" y="761" as="targetPoint" />
          </mxGeometry>
        </mxCell>
        <mxCell id="g9-Y4y1IVOJ0izTEN3iP-20" value="iPhone" style="text;html=1;align=center;verticalAlign=middle;resizable=0;points=[];autosize=1;fillColor=#e1d5e7;strokeColor=#9673a6;" parent="AVb8IYfbYi4PxDFSKJkM-1" vertex="1">
          <mxGeometry x="764" y="817" width="47" height="18" as="geometry" />
        </mxCell>
        <mxCell id="g9-Y4y1IVOJ0izTEN3iP-21" value="Android" style="text;html=1;align=center;verticalAlign=middle;resizable=0;points=[];autosize=1;fillColor=#e1d5e7;strokeColor=#9673a6;" parent="AVb8IYfbYi4PxDFSKJkM-1" vertex="1">
          <mxGeometry x="752" y="109" width="51" height="18" as="geometry" />
        </mxCell>
        <mxCell id="g9-Y4y1IVOJ0izTEN3iP-22" value="" style="shape=link;html=1;" parent="AVb8IYfbYi4PxDFSKJkM-1" edge="1">
          <mxGeometry width="50" height="50" relative="1" as="geometry">
            <mxPoint x="235" y="225" as="sourcePoint" />
            <mxPoint x="235" y="78" as="targetPoint" />
          </mxGeometry>
        </mxCell>
        <mxCell id="g9-Y4y1IVOJ0izTEN3iP-23" value="ADEVOPS Plugin" style="text;html=1;align=center;verticalAlign=middle;resizable=0;points=[];autosize=1;" parent="AVb8IYfbYi4PxDFSKJkM-1" vertex="1">
          <mxGeometry x="185" y="62" width="105" height="18" as="geometry" />
        </mxCell>
        <mxCell id="g9-Y4y1IVOJ0izTEN3iP-24" value="ADOP" style="text;html=1;align=center;verticalAlign=middle;resizable=0;points=[];autosize=1;" parent="AVb8IYfbYi4PxDFSKJkM-1" vertex="1">
          <mxGeometry x="317" y="90" width="44" height="18" as="geometry" />
        </mxCell>
        <mxCell id="g9-Y4y1IVOJ0izTEN3iP-25" value="Sonar Cloud" style="ellipse;shape=cloud;whiteSpace=wrap;html=1;" parent="AVb8IYfbYi4PxDFSKJkM-1" vertex="1">
          <mxGeometry x="489" y="258" width="120" height="80" as="geometry" />
        </mxCell>
        <mxCell id="g9-Y4y1IVOJ0izTEN3iP-28" value="1 CLONE FROM GITLAB" style="rounded=0;whiteSpace=wrap;html=1;" parent="AVb8IYfbYi4PxDFSKJkM-1" vertex="1">
          <mxGeometry x="488" y="39" width="224" height="27" as="geometry" />
        </mxCell>
        <mxCell id="g9-Y4y1IVOJ0izTEN3iP-33" style="edgeStyle=orthogonalEdgeStyle;rounded=0;orthogonalLoop=1;jettySize=auto;html=1;exitX=0.75;exitY=0;exitDx=0;exitDy=0;" parent="AVb8IYfbYi4PxDFSKJkM-1" source="g9-Y4y1IVOJ0izTEN3iP-29" edge="1">
          <mxGeometry relative="1" as="geometry">
            <mxPoint x="657" y="106" as="targetPoint" />
          </mxGeometry>
        </mxCell>
        <mxCell id="g9-Y4y1IVOJ0izTEN3iP-29" value="2 SONAR ANALYSIS" style="rounded=0;whiteSpace=wrap;html=1;" parent="AVb8IYfbYi4PxDFSKJkM-1" vertex="1">
          <mxGeometry x="488" y="104.5" width="224" height="27" as="geometry" />
        </mxCell>
        <mxCell id="g9-Y4y1IVOJ0izTEN3iP-30" value="1.1 IPA" style="rounded=0;whiteSpace=wrap;html=1;" parent="AVb8IYfbYi4PxDFSKJkM-1" vertex="1">
          <mxGeometry x="488" y="70" width="224" height="27" as="geometry" />
        </mxCell>
        <mxCell id="g9-Y4y1IVOJ0izTEN3iP-31" value="3 UI AND UT TEST" style="rounded=0;whiteSpace=wrap;html=1;" parent="AVb8IYfbYi4PxDFSKJkM-1" vertex="1">
          <mxGeometry x="488" y="141" width="224" height="27" as="geometry" />
        </mxCell>
        <mxCell id="g9-Y4y1IVOJ0izTEN3iP-32" value="4 REPORT SONAR, UI UT" style="rounded=0;whiteSpace=wrap;html=1;" parent="AVb8IYfbYi4PxDFSKJkM-1" vertex="1">
          <mxGeometry x="489" y="176" width="224" height="27" as="geometry" />
        </mxCell>
      </root>
    </mxGraphModel>
  </diagram>
  <diagram id="YY93LNjcanVZnhkWvKx8" name="Page-7">
    <mxGraphModel dx="1186" dy="724" grid="0" gridSize="10" guides="1" tooltips="1" connect="1" arrows="1" fold="1" page="0" pageScale="1" pageWidth="827" pageHeight="1169" math="0" shadow="0">
      <root>
        <mxCell id="StAjprnzzVie7SGJUDCc-0" />
        <mxCell id="StAjprnzzVie7SGJUDCc-1" parent="StAjprnzzVie7SGJUDCc-0" />
        <mxCell id="VZ-II17B3RpiXmv_mFDT-2" style="edgeStyle=orthogonalEdgeStyle;rounded=0;orthogonalLoop=1;jettySize=auto;html=1;entryX=0;entryY=0.5;entryDx=0;entryDy=0;" edge="1" parent="StAjprnzzVie7SGJUDCc-1" source="VZ-II17B3RpiXmv_mFDT-0" target="VZ-II17B3RpiXmv_mFDT-1">
          <mxGeometry relative="1" as="geometry" />
        </mxCell>
        <mxCell id="VZ-II17B3RpiXmv_mFDT-9" style="edgeStyle=orthogonalEdgeStyle;rounded=0;orthogonalLoop=1;jettySize=auto;html=1;exitX=0.5;exitY=1;exitDx=0;exitDy=0;entryX=0.5;entryY=0;entryDx=0;entryDy=0;" edge="1" parent="StAjprnzzVie7SGJUDCc-1" source="VZ-II17B3RpiXmv_mFDT-0" target="VZ-II17B3RpiXmv_mFDT-7">
          <mxGeometry relative="1" as="geometry" />
        </mxCell>
        <mxCell id="VZ-II17B3RpiXmv_mFDT-0" value="if AddCareGiver" style="rhombus;whiteSpace=wrap;html=1;" vertex="1" parent="StAjprnzzVie7SGJUDCc-1">
          <mxGeometry x="110" y="222" width="150" height="48" as="geometry" />
        </mxCell>
        <mxCell id="VZ-II17B3RpiXmv_mFDT-4" style="edgeStyle=orthogonalEdgeStyle;rounded=0;orthogonalLoop=1;jettySize=auto;html=1;" edge="1" parent="StAjprnzzVie7SGJUDCc-1" source="VZ-II17B3RpiXmv_mFDT-1">
          <mxGeometry relative="1" as="geometry">
            <mxPoint x="656" y="145" as="targetPoint" />
          </mxGeometry>
        </mxCell>
        <mxCell id="VZ-II17B3RpiXmv_mFDT-1" value="Add Care Giver Details&lt;br&gt;1) First Name&lt;br&gt;2) Lars Name&lt;br&gt;3) Email&amp;nbsp;&lt;br&gt;&lt;div&gt;&lt;span&gt;4) Phone Number&lt;/span&gt;&lt;/div&gt;" style="rounded=1;whiteSpace=wrap;html=1;align=left;" vertex="1" parent="StAjprnzzVie7SGJUDCc-1">
          <mxGeometry x="384" y="194.5" width="136" height="103" as="geometry" />
        </mxCell>
        <mxCell id="VZ-II17B3RpiXmv_mFDT-11" style="edgeStyle=orthogonalEdgeStyle;rounded=0;orthogonalLoop=1;jettySize=auto;html=1;" edge="1" parent="StAjprnzzVie7SGJUDCc-1" source="VZ-II17B3RpiXmv_mFDT-3" target="VZ-II17B3RpiXmv_mFDT-10">
          <mxGeometry relative="1" as="geometry" />
        </mxCell>
        <mxCell id="VZ-II17B3RpiXmv_mFDT-3" value="CPMS" style="ellipse;shape=cloud;whiteSpace=wrap;html=1;" vertex="1" parent="StAjprnzzVie7SGJUDCc-1">
          <mxGeometry x="596" y="74" width="120" height="80" as="geometry" />
        </mxCell>
        <mxCell id="VZ-II17B3RpiXmv_mFDT-5" value="" style="endArrow=classic;html=1;entryX=0.5;entryY=0;entryDx=0;entryDy=0;" edge="1" parent="StAjprnzzVie7SGJUDCc-1" target="VZ-II17B3RpiXmv_mFDT-0">
          <mxGeometry width="50" height="50" relative="1" as="geometry">
            <mxPoint x="185" y="162" as="sourcePoint" />
            <mxPoint x="437" y="346" as="targetPoint" />
          </mxGeometry>
        </mxCell>
        <mxCell id="VZ-II17B3RpiXmv_mFDT-6" value="New CareGiver" style="rounded=1;whiteSpace=wrap;html=1;" vertex="1" parent="StAjprnzzVie7SGJUDCc-1">
          <mxGeometry x="140" y="117" width="96" height="43" as="geometry" />
        </mxCell>
        <mxCell id="VZ-II17B3RpiXmv_mFDT-13" style="edgeStyle=orthogonalEdgeStyle;rounded=0;orthogonalLoop=1;jettySize=auto;html=1;entryX=0.5;entryY=0;entryDx=0;entryDy=0;" edge="1" parent="StAjprnzzVie7SGJUDCc-1" source="VZ-II17B3RpiXmv_mFDT-7" target="VZ-II17B3RpiXmv_mFDT-12">
          <mxGeometry relative="1" as="geometry" />
        </mxCell>
        <mxCell id="VZ-II17B3RpiXmv_mFDT-7" value="Update CareGiver" style="rounded=1;whiteSpace=wrap;html=1;" vertex="1" parent="StAjprnzzVie7SGJUDCc-1">
          <mxGeometry x="137" y="313" width="96" height="38" as="geometry" />
        </mxCell>
        <mxCell id="VZ-II17B3RpiXmv_mFDT-8" value="Yes" style="text;html=1;align=center;verticalAlign=middle;resizable=0;points=[];autosize=1;" vertex="1" parent="StAjprnzzVie7SGJUDCc-1">
          <mxGeometry x="311" y="226" width="30" height="18" as="geometry" />
        </mxCell>
        <mxCell id="VZ-II17B3RpiXmv_mFDT-10" value="CareGiver" style="rounded=1;whiteSpace=wrap;html=1;" vertex="1" parent="StAjprnzzVie7SGJUDCc-1">
          <mxGeometry x="758" y="90" width="96" height="43" as="geometry" />
        </mxCell>
        <mxCell id="VZ-II17B3RpiXmv_mFDT-15" style="edgeStyle=orthogonalEdgeStyle;rounded=0;orthogonalLoop=1;jettySize=auto;html=1;entryX=0.007;entryY=0.573;entryDx=0;entryDy=0;entryPerimeter=0;" edge="1" parent="StAjprnzzVie7SGJUDCc-1" source="VZ-II17B3RpiXmv_mFDT-12" target="VZ-II17B3RpiXmv_mFDT-14">
          <mxGeometry relative="1" as="geometry" />
        </mxCell>
        <mxCell id="VZ-II17B3RpiXmv_mFDT-21" style="edgeStyle=orthogonalEdgeStyle;rounded=0;orthogonalLoop=1;jettySize=auto;html=1;entryX=0.5;entryY=0;entryDx=0;entryDy=0;" edge="1" parent="StAjprnzzVie7SGJUDCc-1" source="VZ-II17B3RpiXmv_mFDT-12" target="VZ-II17B3RpiXmv_mFDT-17">
          <mxGeometry relative="1" as="geometry" />
        </mxCell>
        <mxCell id="VZ-II17B3RpiXmv_mFDT-12" value="if UpdateCareGiver" style="rhombus;whiteSpace=wrap;html=1;" vertex="1" parent="StAjprnzzVie7SGJUDCc-1">
          <mxGeometry x="110" y="379" width="150" height="48" as="geometry" />
        </mxCell>
        <mxCell id="VZ-II17B3RpiXmv_mFDT-16" style="edgeStyle=orthogonalEdgeStyle;rounded=0;orthogonalLoop=1;jettySize=auto;html=1;exitX=1;exitY=0.5;exitDx=0;exitDy=0;entryX=0.55;entryY=0.95;entryDx=0;entryDy=0;entryPerimeter=0;" edge="1" parent="StAjprnzzVie7SGJUDCc-1" source="VZ-II17B3RpiXmv_mFDT-14" target="VZ-II17B3RpiXmv_mFDT-3">
          <mxGeometry relative="1" as="geometry" />
        </mxCell>
        <mxCell id="VZ-II17B3RpiXmv_mFDT-14" value="Update Care Giver Details&lt;br&gt;1) First Name&lt;br&gt;2) Lars Name&lt;br&gt;3) Email&amp;nbsp;&lt;br&gt;&lt;div&gt;&lt;span&gt;4) Phone Number&lt;/span&gt;&lt;/div&gt;" style="rounded=1;whiteSpace=wrap;html=1;align=left;" vertex="1" parent="StAjprnzzVie7SGJUDCc-1">
          <mxGeometry x="384" y="344" width="136" height="103" as="geometry" />
        </mxCell>
        <mxCell id="VZ-II17B3RpiXmv_mFDT-22" style="edgeStyle=orthogonalEdgeStyle;rounded=0;orthogonalLoop=1;jettySize=auto;html=1;entryX=0.5;entryY=0;entryDx=0;entryDy=0;" edge="1" parent="StAjprnzzVie7SGJUDCc-1" source="VZ-II17B3RpiXmv_mFDT-17" target="VZ-II17B3RpiXmv_mFDT-18">
          <mxGeometry relative="1" as="geometry" />
        </mxCell>
        <mxCell id="VZ-II17B3RpiXmv_mFDT-17" value="Delete CareGiver" style="rounded=1;whiteSpace=wrap;html=1;" vertex="1" parent="StAjprnzzVie7SGJUDCc-1">
          <mxGeometry x="141" y="469" width="96" height="38" as="geometry" />
        </mxCell>
        <mxCell id="VZ-II17B3RpiXmv_mFDT-23" style="edgeStyle=orthogonalEdgeStyle;rounded=0;orthogonalLoop=1;jettySize=auto;html=1;entryX=0;entryY=0.5;entryDx=0;entryDy=0;" edge="1" parent="StAjprnzzVie7SGJUDCc-1" source="VZ-II17B3RpiXmv_mFDT-18" target="VZ-II17B3RpiXmv_mFDT-20">
          <mxGeometry relative="1" as="geometry" />
        </mxCell>
        <mxCell id="VZ-II17B3RpiXmv_mFDT-18" value="if DeleteCareGiver" style="rhombus;whiteSpace=wrap;html=1;" vertex="1" parent="StAjprnzzVie7SGJUDCc-1">
          <mxGeometry x="114" y="535" width="150" height="48" as="geometry" />
        </mxCell>
        <mxCell id="VZ-II17B3RpiXmv_mFDT-19" style="edgeStyle=orthogonalEdgeStyle;rounded=0;orthogonalLoop=1;jettySize=auto;html=1;exitX=1;exitY=0.5;exitDx=0;exitDy=0;" edge="1" parent="StAjprnzzVie7SGJUDCc-1" source="VZ-II17B3RpiXmv_mFDT-20">
          <mxGeometry relative="1" as="geometry">
            <mxPoint x="672" y="143" as="targetPoint" />
            <Array as="points">
              <mxPoint x="672" y="552" />
            </Array>
          </mxGeometry>
        </mxCell>
        <mxCell id="VZ-II17B3RpiXmv_mFDT-20" value="Update Care Giver Details&lt;br&gt;1) First Name&lt;br&gt;2) Lars Name&lt;br&gt;3) Email&amp;nbsp;&lt;br&gt;&lt;div&gt;&lt;span&gt;4) Phone Number&lt;/span&gt;&lt;/div&gt;" style="rounded=1;whiteSpace=wrap;html=1;align=left;" vertex="1" parent="StAjprnzzVie7SGJUDCc-1">
          <mxGeometry x="388" y="500" width="136" height="103" as="geometry" />
        </mxCell>
        <mxCell id="VZ-II17B3RpiXmv_mFDT-24" style="edgeStyle=orthogonalEdgeStyle;rounded=0;orthogonalLoop=1;jettySize=auto;html=1;entryX=0;entryY=0.5;entryDx=0;entryDy=0;" edge="1" parent="StAjprnzzVie7SGJUDCc-1" source="VZ-II17B3RpiXmv_mFDT-26" target="VZ-II17B3RpiXmv_mFDT-36">
          <mxGeometry relative="1" as="geometry">
            <mxPoint x="375" y="753" as="targetPoint" />
          </mxGeometry>
        </mxCell>
        <mxCell id="VZ-II17B3RpiXmv_mFDT-40" style="edgeStyle=orthogonalEdgeStyle;rounded=0;orthogonalLoop=1;jettySize=auto;html=1;entryX=0.5;entryY=0;entryDx=0;entryDy=0;" edge="1" parent="StAjprnzzVie7SGJUDCc-1" source="VZ-II17B3RpiXmv_mFDT-26" target="VZ-II17B3RpiXmv_mFDT-34">
          <mxGeometry relative="1" as="geometry" />
        </mxCell>
        <mxCell id="VZ-II17B3RpiXmv_mFDT-26" value="if Personal CareGiver" style="rhombus;whiteSpace=wrap;html=1;" vertex="1" parent="StAjprnzzVie7SGJUDCc-1">
          <mxGeometry x="101" y="775" width="150" height="57" as="geometry" />
        </mxCell>
        <mxCell id="VZ-II17B3RpiXmv_mFDT-38" style="edgeStyle=orthogonalEdgeStyle;rounded=0;orthogonalLoop=1;jettySize=auto;html=1;entryX=0.5;entryY=0;entryDx=0;entryDy=0;" edge="1" parent="StAjprnzzVie7SGJUDCc-1" source="VZ-II17B3RpiXmv_mFDT-29" target="VZ-II17B3RpiXmv_mFDT-31">
          <mxGeometry relative="1" as="geometry" />
        </mxCell>
        <mxCell id="VZ-II17B3RpiXmv_mFDT-29" value="Fetch CareGiver List" style="rounded=1;whiteSpace=wrap;html=1;" vertex="1" parent="StAjprnzzVie7SGJUDCc-1">
          <mxGeometry x="128" y="624" width="96" height="43" as="geometry" />
        </mxCell>
        <mxCell id="VZ-II17B3RpiXmv_mFDT-39" style="edgeStyle=orthogonalEdgeStyle;rounded=0;orthogonalLoop=1;jettySize=auto;html=1;entryX=0.5;entryY=0;entryDx=0;entryDy=0;" edge="1" parent="StAjprnzzVie7SGJUDCc-1" source="VZ-II17B3RpiXmv_mFDT-31" target="VZ-II17B3RpiXmv_mFDT-26">
          <mxGeometry relative="1" as="geometry" />
        </mxCell>
        <mxCell id="VZ-II17B3RpiXmv_mFDT-31" value="Filter&amp;nbsp;" style="rounded=1;whiteSpace=wrap;html=1;" vertex="1" parent="StAjprnzzVie7SGJUDCc-1">
          <mxGeometry x="128" y="703" width="96" height="38" as="geometry" />
        </mxCell>
        <mxCell id="VZ-II17B3RpiXmv_mFDT-32" value="Yes" style="text;html=1;align=center;verticalAlign=middle;resizable=0;points=[];autosize=1;" vertex="1" parent="StAjprnzzVie7SGJUDCc-1">
          <mxGeometry x="281" y="782" width="30" height="18" as="geometry" />
        </mxCell>
        <mxCell id="VZ-II17B3RpiXmv_mFDT-33" style="edgeStyle=orthogonalEdgeStyle;rounded=0;orthogonalLoop=1;jettySize=auto;html=1;entryX=0;entryY=0.5;entryDx=0;entryDy=0;" edge="1" parent="StAjprnzzVie7SGJUDCc-1" source="VZ-II17B3RpiXmv_mFDT-34" target="VZ-II17B3RpiXmv_mFDT-37">
          <mxGeometry relative="1" as="geometry">
            <mxPoint x="375.952" y="910.019" as="targetPoint" />
          </mxGeometry>
        </mxCell>
        <mxCell id="VZ-II17B3RpiXmv_mFDT-34" value="if UpdateCareGiver" style="rhombus;whiteSpace=wrap;html=1;" vertex="1" parent="StAjprnzzVie7SGJUDCc-1">
          <mxGeometry x="101" y="886" width="150" height="48" as="geometry" />
        </mxCell>
        <mxCell id="VZ-II17B3RpiXmv_mFDT-44" style="edgeStyle=orthogonalEdgeStyle;rounded=0;orthogonalLoop=1;jettySize=auto;html=1;entryX=0;entryY=0.5;entryDx=0;entryDy=0;" edge="1" parent="StAjprnzzVie7SGJUDCc-1" source="VZ-II17B3RpiXmv_mFDT-36" target="VZ-II17B3RpiXmv_mFDT-42">
          <mxGeometry relative="1" as="geometry" />
        </mxCell>
        <mxCell id="VZ-II17B3RpiXmv_mFDT-45" style="edgeStyle=orthogonalEdgeStyle;rounded=0;orthogonalLoop=1;jettySize=auto;html=1;entryX=0;entryY=0.5;entryDx=0;entryDy=0;" edge="1" parent="StAjprnzzVie7SGJUDCc-1" source="VZ-II17B3RpiXmv_mFDT-36" target="VZ-II17B3RpiXmv_mFDT-43">
          <mxGeometry relative="1" as="geometry" />
        </mxCell>
        <mxCell id="VZ-II17B3RpiXmv_mFDT-36" value="Display Personal CareGiver" style="shape=process;whiteSpace=wrap;html=1;backgroundOutline=1;" vertex="1" parent="StAjprnzzVie7SGJUDCc-1">
          <mxGeometry x="355" y="773.5" width="120" height="60" as="geometry" />
        </mxCell>
        <mxCell id="VZ-II17B3RpiXmv_mFDT-37" value="Display Profetional CareGiver" style="shape=process;whiteSpace=wrap;html=1;backgroundOutline=1;" vertex="1" parent="StAjprnzzVie7SGJUDCc-1">
          <mxGeometry x="344" y="880" width="120" height="60" as="geometry" />
        </mxCell>
        <mxCell id="VZ-II17B3RpiXmv_mFDT-41" value="Yes" style="text;html=1;align=center;verticalAlign=middle;resizable=0;points=[];autosize=1;" vertex="1" parent="StAjprnzzVie7SGJUDCc-1">
          <mxGeometry x="281" y="886" width="30" height="18" as="geometry" />
        </mxCell>
        <mxCell id="VZ-II17B3RpiXmv_mFDT-42" value="Pending" style="rounded=1;whiteSpace=wrap;html=1;" vertex="1" parent="StAjprnzzVie7SGJUDCc-1">
          <mxGeometry x="513" y="744" width="96" height="38" as="geometry" />
        </mxCell>
        <mxCell id="VZ-II17B3RpiXmv_mFDT-43" value="Confirmed" style="rounded=1;whiteSpace=wrap;html=1;" vertex="1" parent="StAjprnzzVie7SGJUDCc-1">
          <mxGeometry x="513" y="810" width="96" height="38" as="geometry" />
        </mxCell>
      </root>
    </mxGraphModel>
  </diagram>
</mxfile>
